<svg width="2000" height="460" viewBox="0 0 2000 460" fill="none" xmlns="http://www.w3.org/2000/svg">
<path d="M345 427.995C345 379.011 345 330.525 345 282.039C345 267.759 347.1 264.684 361.014 261.589C371.449 259.268 381.731 259.88 390.13 267.667C392.428 269.797 394.717 272.583 395.599 275.495C403.269 300.828 410.605 326.262 418.066 351.658C422.236 365.852 426.45 380.032 430.657 394.215C430.92 395.099 431.294 395.951 432.896 397.021C434.124 393.293 435.503 389.607 436.557 385.83C445.133 355.116 453.648 324.384 462.184 293.659C463.811 287.801 464.719 281.592 467.32 276.203C469.431 271.829 472.937 267.461 476.956 264.802C488.123 257.414 499.881 259.48 511.321 264.762C516.745 267.266 517.969 272.238 517.978 277.594C518.024 305.586 518 333.578 518 361.57C518 387.395 518.009 413.221 517.994 439.047C517.989 447.413 513.606 451.818 505.189 451.994C503.857 452.022 502.515 451.902 501.192 452.015C494.131 452.615 488.756 446.37 488.82 439.745C489.19 401.76 489 363.77 489 325.781C489 323.793 489 321.805 489 319.644C487.305 319.036 485.813 318.501 483.74 317.757C482.859 319.787 481.84 321.607 481.255 323.557C471.096 357.419 461.005 391.301 450.858 425.167C448.97 431.469 447 437.75 444.888 443.981C443.153 449.1 438.402 452.027 432.417 451.995C425.765 451.959 420.821 449.342 419.22 444.273C412.384 422.629 405.719 400.931 399.022 379.243C394.169 363.529 389.372 347.798 384.533 332.08C382.997 327.09 381.403 322.117 379.842 317.155C377.652 317.657 376.064 318.021 374 318.494C374 320.557 374 322.698 374 324.839C374 363.161 374.004 401.483 373.996 439.805C373.994 447.779 369.828 451.714 361.753 452.043C350.518 452.501 343.884 449.096 344.974 435.488C345.159 433.171 345 430.826 345 427.995Z" fill="#333446"/>
<path d="M594.296 352.569C590.706 340.541 587.283 328.884 583.836 317.148C581.702 317.637 580.123 317.999 578 318.485C578 320.507 578 322.639 578 324.77C578 362.767 578.005 400.764 577.996 438.761C577.994 447.526 573.714 451.898 564.97 451.97C562.333 451.992 559.602 452.056 557.073 451.445C551.808 450.173 549.016 446.398 549.014 441.023C548.994 386.027 548.913 331.031 549.212 276.037C549.231 272.563 551.37 267.873 554.086 265.864C563.774 258.696 586.31 257.725 595.115 268.753C597.521 271.767 599.677 275.321 600.778 278.98C607.075 299.922 612.978 320.983 619.096 341.98C624.384 360.127 629.781 378.242 635.13 396.371C635.622 396.485 636.113 396.599 636.605 396.713C638.047 392.384 639.667 388.105 640.901 383.717C649.093 354.595 657.198 325.449 665.342 296.314C667.068 290.14 669.234 284.057 670.477 277.789C671.645 271.897 675.186 268.14 679.8 265.103C691.412 257.46 706.535 259.252 717.115 266.11C721.471 268.933 721.898 273.949 721.909 278.456C722.043 331.785 722.051 385.115 721.904 438.443C721.891 443.318 721.335 448.794 715.467 450.676C708.67 452.855 701.613 453.554 695.744 448.576C693.977 447.077 693.123 443.625 693.112 441.062C692.951 402.399 693 363.736 693 325.072C693 323.254 693 321.436 693 319.887C688.321 316.706 686.354 318.543 685.049 322.958C676.052 353.399 666.97 383.814 657.846 414.216C655.008 423.67 651.991 433.07 648.99 442.474C646.753 449.479 643.158 452.036 635.875 451.997C628.947 451.96 624.051 448.365 622.095 442.031C614.769 418.295 607.411 394.569 600.058 370.842C598.207 364.87 596.327 358.907 594.296 352.569Z" fill="#333446"/>
<path d="M1452 37C1452 84.8187 1451.88 132.138 1452.12 179.455C1452.16 187.061 1449.15 191.579 1442.38 194.23C1430.78 198.777 1413.54 198.927 1406.69 188.88C1402.87 183.281 1400.72 176.49 1398.14 170.106C1386.06 140.196 1374.09 110.244 1362.1 80.2982C1359.65 74.1874 1357.29 68.0407 1354.9 61.9089C1353.46 58.2279 1353.03 57.9872 1348 58.4971C1348 60.3981 1348 62.361 1348 64.3238C1348 102.645 1348.02 140.967 1347.96 179.288C1347.96 181.898 1347.56 184.536 1347.07 187.11C1345.57 195.017 1343.14 196.962 1335.03 196.999C1333.69 197.005 1332.36 197.004 1331.03 196.999C1322.09 196.961 1318.05 193.049 1318.02 184.009C1317.95 162.182 1318 140.356 1318 118.529C1318 87.8719 1318.21 57.2127 1317.91 26.5585C1317.76 11.1002 1324.05 8.09596 1335.52 6.35342C1341.98 5.37071 1348.92 6.98693 1355.57 7.91822C1361.44 8.73866 1364.86 13.3002 1366.82 18.1793C1383.4 59.4018 1399.68 100.745 1416.19 141.991C1416.83 143.574 1419 144.54 1420.45 145.794C1421.3 144.062 1422.88 142.333 1422.89 140.599C1423.03 101.111 1423 61.6235 1423 22.1358C1423 20.4706 1422.74 18.718 1423.16 17.157C1424.33 12.7758 1424.83 7.71675 1430.7 6.7274C1437.25 5.62081 1444 4.35519 1449.55 9.31194C1451.03 10.6317 1451.8 13.3778 1451.89 15.5105C1452.18 22.4968 1452 29.5021 1452 37Z" fill="#333446"/>
<path d="M1978 332C1978 365.492 1977.77 398.486 1978.13 431.474C1978.25 442.582 1975.1 446.817 1964.41 449.985C1952.88 453.408 1941.49 453.651 1932.86 443.971C1929.19 439.864 1927.47 433.885 1925.34 428.569C1910.12 390.695 1895.05 352.76 1879.77 314.914C1879.23 313.599 1876.91 313.008 1875.43 312.08C1874.62 313.486 1873.15 314.876 1873.11 316.302C1872.89 324.794 1873 333.295 1873 341.793C1873 374.452 1873 407.11 1873 439.769C1873 446.922 1870.66 450.465 1863.71 451.488C1859.25 452.142 1854.29 451.983 1850.05 450.637C1845.79 449.286 1843.91 445.265 1843.93 440.312C1844.06 402.655 1844 364.998 1844 327.34C1844 311.511 1844 295.682 1844 279.852C1844 267.905 1845.82 265.45 1857.31 261.86C1865.08 259.429 1872.83 259.352 1880.59 262.006C1886.45 264.009 1890.49 267.88 1892.76 273.563C1908.06 311.764 1923.32 349.975 1938.58 388.188C1939.62 390.785 1940.87 393.357 1941.45 396.062C1942.32 400.114 1944.8 400.487 1949 399.503C1949 397.654 1949 395.586 1949 393.519C1949 354.029 1949.33 314.534 1948.82 275.051C1948.65 261.26 1957.72 258.748 1967.67 260.45C1975.84 261.847 1977.99 265.121 1978 273.514C1978.01 292.843 1978 312.171 1978 332Z" fill="#333446"/>
<path d="M947 358C947 385.831 946.816 413.164 947.138 440.492C947.212 446.78 943.706 450.574 938.776 451.515C931.399 452.924 921.368 452.604 918.984 444.863C918.46 443.163 918.043 441.345 918.041 439.581C917.992 385.586 917.993 331.59 918.01 277.594C918.012 269.445 921.726 264.465 929.429 262.314C937.8 259.977 946.189 258.811 954.674 262.01C960.573 264.235 964.742 268.107 967.078 273.969C983.406 314.954 999.701 355.953 1016.21 396.862C1016.92 398.602 1019.67 399.512 1021.48 400.809C1021.98 400.424 1022.49 400.039 1023 399.653C1023 397.539 1023 395.425 1023 393.311C1023 353.814 1023 314.317 1023 274.82C1022.99 269.749 1023.23 264.826 1028.63 262.152C1035.2 258.89 1041.79 259.171 1048.03 262.729C1051.51 264.712 1052.06 268.363 1052.06 272.293C1051.97 322.622 1052 372.952 1052 423.281C1052 426.614 1052 429.947 1052 433.28C1052 442.759 1049.97 446.099 1041.13 449.309C1032.75 452.352 1024.18 453.168 1015.49 450.03C1009.86 447.994 1006.08 444.428 1003.84 438.806C989.85 403.623 975.751 368.482 961.654 333.341C959.263 327.381 956.879 321.404 954.111 315.618C953.375 314.082 951.222 313.223 949.72 312.053C948.814 313.703 947.149 315.341 947.122 317.005C946.908 330.5 947.001 344.001 947 358Z" fill="#333446"/>
<path d="M1050.2 8.80785C1051.32 12.5498 1052.88 16.009 1052.89 19.4727C1053.05 73.1322 1053 126.792 1053 180.452C1053 187.549 1049.85 191.472 1043.12 194.131C1035.81 197.017 1028.29 197.838 1020.7 196.688C1010.31 195.113 1005.68 187.473 1002.09 178.39C986.722 139.507 971.046 100.745 955.459 61.9477C953.833 57.9002 953.765 57.9276 948 58.3629C948 60.3534 948 62.4241 948 64.4948C948 104.823 948.003 145.151 947.997 185.48C947.996 193.484 944.564 196.927 936.548 196.996C934.382 197.015 932.215 197.023 930.049 196.994C923.889 196.91 919.531 192.817 919.034 186.6C918.915 185.109 919.001 183.602 919.001 182.102C919 130.442 919.201 78.7805 918.886 27.1222C918.782 10.1452 924.583 8.71467 935.413 6.52416C942.79 5.0321 950.63 4.96185 957.918 8.09946C963.627 10.557 966.708 15.384 968.902 20.913C984.806 60.9982 1000.71 101.084 1016.62 141.167C1016.86 141.78 1017.05 142.507 1017.5 142.929C1018.62 143.982 1019.88 144.891 1021.09 145.858C1022.06 144.391 1023.83 142.942 1023.87 141.453C1024.11 130.96 1024 120.459 1024 109.96C1024 79.7971 1023.99 49.6342 1024 19.4713C1024.01 9.84364 1027.87 5.77186 1037.53 6.11644C1041.68 6.26458 1045.79 7.68486 1050.2 8.80785Z" fill="#333446"/>
<path d="M1252.14 195.416C1232.62 195.763 1213.46 195.711 1194.31 196.074C1185.13 196.248 1177.12 193.441 1169.73 188.356C1160.78 182.195 1155.15 173.971 1155.03 162.824C1154.61 123.879 1154.1 84.9325 1154.2 45.988C1154.22 37.9317 1155.38 29.5967 1160.81 22.6268C1168.29 13.0268 1178.43 7.76682 1190.03 7.24031C1209.32 6.36499 1228.75 5.99371 1248 7.29405C1266.14 8.51965 1283.23 21.1862 1283.08 42.3359C1282.8 81.3319 1282.46 120.342 1283.23 159.325C1283.61 178.503 1268.35 192.146 1252.14 195.416ZM1251.57 164.908C1252.38 162.602 1253.88 160.299 1253.89 157.989C1254.04 120.367 1254.14 82.7426 1253.86 45.1216C1253.81 38.0161 1248.58 31.705 1240.18 31.9072C1226.04 32.2476 1211.88 31.9829 1197.73 32.0074C1189.69 32.0213 1184.08 37.1412 1184.06 45.125C1183.94 82.7477 1183.95 120.371 1184.06 157.994C1184.08 165.153 1189.69 170.917 1196.35 170.963C1211.5 171.066 1226.66 171.3 1241.79 170.747C1244.96 170.632 1248.02 167.359 1251.57 164.908Z" fill="#333446"/>
<path d="M192.25 438.747C185.886 431.332 182.843 423.265 182.903 413.634C183.14 375.661 183.249 337.683 182.897 299.711C182.716 280.242 191.853 269.953 208.36 264.189C214.001 262.219 220.237 261.313 226.237 261.139C240.881 260.714 255.55 260.805 270.202 261.064C281.361 261.261 291.589 264.694 300.308 271.853C308.581 278.646 311.792 288.1 311.874 298.223C312.183 336.695 312.356 375.176 311.853 413.644C311.587 434.017 299.992 445.895 280.813 449.586C268.117 452.029 254.689 450.846 241.586 450.935C232.815 450.995 224.021 450.7 215.271 450.086C206.307 449.457 199.385 444.163 192.25 438.747ZM240.505 286C236.341 286.003 232.171 285.859 228.014 286.036C217.744 286.476 212.062 291.894 212.039 301.647C211.951 338.291 211.955 374.935 212.042 411.579C212.061 419.692 218.034 425.837 226.052 425.941C240.374 426.127 254.701 426.084 269.024 425.95C275.01 425.894 279.58 422.307 281.176 416.337C282.185 412.563 282.907 408.582 282.923 404.691C283.058 372.212 283.033 339.731 282.95 307.252C282.941 303.812 282.795 300.192 281.738 296.976C280.104 292.003 277.339 287.35 271.297 287.013C261.378 286.461 251.436 286.317 240.505 286Z" fill="#333446"/>
<path d="M1680 347C1680 331.177 1680.16 315.851 1679.96 300.531C1679.68 278.229 1693.14 264.44 1714.06 262.307C1732.83 260.393 1751.91 260.608 1770.81 261.291C1782.83 261.726 1793.78 266.646 1801.91 276.368C1806.68 282.083 1808.88 288.829 1808.91 295.986C1809.09 335.959 1809.33 375.937 1808.84 415.905C1808.64 431.794 1800.4 441.892 1784.5 447.812C1778.93 449.888 1772.64 450.707 1766.65 450.862C1750.84 451.27 1735 451.29 1719.19 450.927C1699.18 450.467 1679.44 436.435 1679.91 411.956C1680.33 390.478 1680 368.986 1680 347ZM1780 306.611C1780.32 290.214 1773.66 286.552 1763.73 286.136C1750.93 285.6 1738.05 285.509 1725.26 286.179C1716.64 286.631 1712.34 288.254 1709.96 297.857C1709.53 299.598 1709.04 301.393 1709.04 303.164C1708.99 338.324 1708.84 373.485 1709.1 408.643C1709.18 420.099 1714.29 426.388 1726.3 426.071C1738.46 425.749 1750.63 426.004 1762.79 425.999C1774.48 425.994 1779.99 420.428 1780 408.564C1780.01 374.904 1780 341.243 1780 306.611Z" fill="#333446"/>
<path d="M783 407.808C782.941 419.833 788.993 426.687 800.932 426.118C812.405 425.572 823.939 425.635 835.42 426.096C848.681 426.629 853.744 420.713 853.855 407.334C854.233 362.174 854.038 317.01 853.938 271.847C853.929 267.615 854.924 263.591 858.782 262.357C863.298 260.913 868.549 260.002 873.109 260.854C881.226 262.372 882.997 265.498 882.998 273.714C883.002 320.21 882.998 366.706 883.001 413.202C883.002 433.91 869.038 446.173 851.795 449.804C844.919 451.252 837.617 450.865 830.505 450.955C818.008 451.115 805.504 451.191 793.01 450.952C777.346 450.651 757.801 440.697 754.501 420.968C754.175 419.021 754.022 417.022 754.02 415.047C753.994 368.217 754 321.388 754 274.559C754 263.318 760.806 257.879 772.054 260.13C780.458 261.811 782.997 264.981 782.998 273.847C783.002 318.343 783 362.839 783 407.808Z" fill="#333446"/>
<path d="M860.595 192.731C855.137 193.943 850.036 195.751 844.898 195.858C827.248 196.227 809.585 196.045 791.927 195.987C776.24 195.935 754.446 182.389 754.79 159.368C755.491 112.568 754.998 65.7497 755.002 18.9391C755.003 9.02818 758.066 6.00875 768.085 6.00031C769.251 5.99932 770.417 5.99119 771.583 6.00258C779.867 6.08353 783.986 10.2024 783.99 18.5815C784.011 58.8952 784 99.209 784 139.523C784 145.02 783.943 150.518 784.015 156.015C784.137 165.405 789.813 170.996 799.136 170.999C811.63 171.003 824.154 170.455 836.61 171.145C850.687 171.924 854.811 164.649 854.891 152.376C855.17 109.399 855 66.4189 855 23.4398C855 21.1076 854.985 18.7753 855.004 16.4432C855.05 10.6649 857.548 7.02421 863.048 6.24121C867.115 5.66237 871.425 5.70036 875.476 6.3711C881.14 7.30888 883.987 11.7963 883.991 18.5186C884.01 48.6706 884 78.8226 884 108.975C884 124.467 883.833 139.962 884.045 155.451C884.283 172.868 877.724 185.84 860.595 192.731Z" fill="#333446"/>
<path d="M1258.42 325.736C1253.23 323.333 1253.5 318.638 1253.1 314.53C1252.68 310.238 1253.02 305.875 1252.99 301.543C1252.93 292.112 1247.55 286.259 1238.05 286.073C1224.72 285.813 1211.39 285.828 1198.06 286.066C1188.34 286.24 1183.01 292.085 1183.01 301.931C1182.99 337.92 1182.99 373.908 1183.01 409.897C1183.01 420.468 1188.61 425.995 1199.22 425.999C1212.21 426.003 1225.21 426.019 1238.21 425.993C1247.09 425.974 1252.86 420.004 1253.03 411.024C1253.15 405.083 1253.37 399.128 1253.93 393.215C1254.32 389.17 1256.91 386.504 1260.98 385.981C1265.04 385.46 1269.22 384.914 1273.26 385.319C1279.41 385.939 1282.8 390.375 1282.74 396.119C1282.64 405.832 1282.76 415.822 1280.56 425.174C1277.12 439.822 1265.22 446.695 1251.62 449.752C1244.15 451.432 1236.13 450.852 1228.35 450.957C1216.19 451.12 1204.02 451.238 1191.87 450.937C1177.64 450.585 1158.26 441.111 1154.62 423.056C1153.67 418.394 1153.09 413.576 1153.07 408.827C1152.94 373.672 1152.75 338.514 1153.15 303.363C1153.28 291.993 1154.54 280.39 1164.3 272.234C1172.95 265 1183.16 261.367 1194.28 261.099C1210.1 260.717 1225.96 260.442 1241.76 261.169C1255.82 261.815 1268.63 266.253 1277.17 278.69C1281.99 285.711 1282.11 293.912 1282.93 301.896C1283.31 305.523 1283.04 309.221 1282.99 312.886C1282.83 324.477 1274.15 330.775 1262.94 327.438C1261.53 327.017 1260.16 326.43 1258.42 325.736Z" fill="#333446"/>
<path d="M118.454 262.261C133.703 266.523 145.999 273.845 148.483 290.452C149.799 299.258 148.671 308.407 149.1 317.379C149.301 321.58 147.4 324.648 144.156 325.688C139.75 327.1 134.701 328.116 130.241 327.388C122.441 326.114 120.04 322.213 120.004 314.161C119.985 309.994 120.02 305.828 119.995 301.662C119.937 291.989 114.433 286.189 104.662 286.051C91.4995 285.866 78.3296 285.844 65.1678 286.06C55.4482 286.219 50.0138 292.067 50.0085 301.832C49.9886 338.328 49.9891 374.825 50.0091 411.321C50.0139 420.096 55.7916 425.961 64.4562 425.988C77.788 426.029 91.1202 426.03 104.452 425.989C114.067 425.959 119.911 420.122 119.994 410.564C120.023 407.232 120.12 403.893 119.979 400.566C119.341 385.427 128.34 383.876 139.219 385.321C147.425 386.411 149.105 388.971 148.969 397.335C148.831 405.78 149.259 414.346 147.991 422.637C145.48 439.046 133.122 446.398 118.698 449.685C109.966 451.674 100.549 450.965 91.4417 450.928C78.1655 450.875 64.6471 451.8 51.6778 449.636C35.231 446.891 21.6977 435.95 20.9996 417.237C20.5478 405.128 20.1106 393.013 20.0442 380.898C19.9007 354.735 19.8709 328.57 20.0775 302.407C20.1412 294.327 21.0612 286.18 25.5285 279.099C31.9724 268.885 42.0496 263.177 53.4155 262.317C72.4416 260.877 91.6123 261.311 110.724 261.078C113.163 261.048 115.611 261.752 118.454 262.261Z" fill="#333446"/>
<path d="M1299.07 436.46C1312.62 395.247 1326.16 354.468 1339.64 313.668C1344.19 299.918 1348.47 286.081 1353.08 272.352C1355.01 266.588 1358.41 262.858 1365.23 261.601C1374.18 259.951 1382.98 259.976 1391.77 261.217C1398.48 262.164 1402.95 266.779 1405.07 273.157C1418.31 313.157 1431.49 353.181 1444.59 393.23C1449.29 407.616 1453.82 422.061 1458.21 436.546C1460.21 443.151 1458.41 446.913 1452.25 449.863C1449.61 451.131 1446.79 452.199 1443.93 452.834C1437.73 454.214 1432.36 450.479 1429.98 443.216C1420.28 413.659 1410.67 384.075 1401 354.512C1394.03 333.241 1387.01 311.988 1380.01 290.731C1379.77 290.005 1379.4 289.324 1378.62 287.561C1374.21 301.128 1370.16 313.696 1366.04 326.242C1358.44 349.389 1350.72 372.498 1343.2 395.67C1337.96 411.787 1332.97 427.981 1327.87 444.142C1325.91 450.367 1319.27 454.09 1312.97 452.493C1312.33 452.332 1311.7 452.136 1311.06 452.009C1303.71 450.55 1297.71 446.483 1299.07 436.46Z" fill="#333446"/>
<path d="M547.002 25.252C547.712 21.0857 548.054 17.2694 549.223 13.7258C550.741 9.12271 554.656 7.06948 559.265 7.05414C588.424 6.95708 617.585 6.97277 646.744 7.09199C648.341 7.09852 650.275 7.99896 651.469 9.10985C656.573 13.8572 655.748 20.1694 654.354 25.8219C652.995 31.33 647.806 32.0476 642.682 32.0292C622.688 31.9571 602.692 32 582.697 32.0002C580.726 32.0002 578.755 32.0002 576.394 32.0002C576.394 78.3362 576.394 124.231 576.394 171C578.262 171 580.175 171 582.089 171C603.751 171 625.413 171.005 647.074 170.997C651.539 170.995 656.13 171.4 657.83 176.238C659.836 181.946 660.309 188.056 656.789 193.381C655.773 194.92 652.796 195.877 650.711 195.888C620.219 196.044 589.726 196.026 559.233 195.966C553.954 195.955 549.164 192.104 548.185 186.999C547.473 183.289 547.054 179.463 547.048 175.688C546.976 125.7 547 75.7115 547.002 25.252Z" fill="#333446"/>
<path d="M1514 425C1514 378.557 1514 332.614 1514 286C1507.01 286 1500.57 286 1494.13 286C1487.8 286 1481.47 286.001 1475.14 286C1466.25 285.999 1461.53 280.221 1463.09 271.257C1464.44 263.47 1467.34 261.017 1475.51 261.011C1510.84 260.987 1546.16 260.998 1581.49 261.005C1585.97 261.005 1590.32 261.621 1591.96 266.622C1593.94 272.674 1593.95 278.841 1590 284.087C1588.92 285.512 1585.82 285.887 1583.63 285.918C1571.81 286.089 1559.98 285.992 1548.14 286.012C1546.68 286.014 1545.21 286.161 1543 286.281C1543 288.568 1543 290.665 1543 292.763C1543 341.583 1543 390.404 1543 439.224C1543 448.873 1536.38 454.288 1526.9 452.441C1525.77 452.22 1524.61 452.126 1523.46 451.992C1517.15 451.252 1514.04 447.824 1514.01 441.495C1513.98 436.164 1514 430.832 1514 425Z" fill="#333446"/>
<path d="M1118 81C1118 115.3 1118 149.099 1118 182.899C1118 193.326 1114.38 196.987 1104.12 197C1103.62 197 1103.12 197 1102.62 197C1091.99 196.997 1088.81 194.055 1088.03 183.446C1087.92 181.955 1088 180.45 1088 178.952C1088 127.336 1087.98 75.7212 1088.05 24.1061C1088.05 20.5018 1088.44 16.8395 1089.19 13.3188C1089.57 11.5236 1090.77 9.39723 1092.25 8.42996C1098.43 4.40731 1105.35 5.10808 1111.8 7.22854C1117.3 9.03963 1117.98 14.4307 1117.99 19.561C1118.02 39.874 1118 60.187 1118 81Z" fill="#333446"/>
<path d="M1643 331C1643 366.662 1643 401.823 1643 436.985C1643 449.849 1635.79 455.146 1623.14 451.579C1616.18 449.618 1614.01 446.638 1614 438.909C1614 384.25 1614.3 329.589 1613.79 274.935C1613.66 261.288 1623.96 258.637 1632.82 260.467C1641.32 262.222 1643 264.716 1643 273.508C1643 292.505 1643 311.503 1643 331Z" fill="#333446"/>
<path d="M1088 403C1088 359.336 1088 316.172 1088 273.008C1088 264.891 1089.68 262.464 1097.75 260.716C1107.6 258.586 1117.3 261.863 1117.19 275.128C1116.74 329.121 1117 383.12 1117 437.116C1117 442.573 1116.73 448.25 1110.76 450.504C1103.72 453.167 1096.37 453.457 1090.16 448.276C1088.7 447.065 1088.12 444.144 1088.09 441.996C1087.91 429.166 1088 416.333 1088 403Z" fill="#333446"/>
<path d="M614.662 77.9301C624.639 76.3187 634.028 82.5676 636.66 92.2591C639.281 101.911 634.082 112.763 625.275 116.021C613.003 120.562 602.757 116.772 598.116 104.892C593.754 93.7278 599.753 78.8978 614.662 77.9301Z" fill="#333446"/>
<path d="M1367.87 377.687C1381.26 370.976 1391.85 376.703 1395.77 385.859C1399.61 394.831 1395.53 405.809 1387.5 409.779C1378.81 414.073 1367.7 411.59 1363.15 404.335C1357.36 395.117 1359.13 384.544 1367.87 377.687Z" fill="#333446"/>
</svg>
