<svg width="2000" height="2668" viewBox="0 0 2000 2668" fill="none" xmlns="http://www.w3.org/2000/svg">
<path d="M1175.37 42.442C1213.87 49.7882 1251.4 57.7134 1287.82 69.6976C1320.39 80.4126 1352.85 91.7044 1384.57 104.662C1411.66 115.728 1437.97 128.883 1464.01 142.31C1484.7 152.98 1504.75 164.994 1524.57 177.233C1560.6 199.473 1594.8 224.378 1627.53 251.224C1641.92 263.031 1655.52 275.821 1669.33 288.318C1678.71 296.798 1688.17 305.23 1697.03 314.227C1736.82 354.592 1773.56 397.517 1806.12 444.008C1829.85 477.893 1851.32 513.067 1870.99 549.468C1897.71 598.884 1919.17 650.48 1936.71 703.695C1953.94 755.964 1967.24 809.278 1974.16 863.984C1977.29 888.704 1979.78 913.514 1982.03 938.331C1983.27 951.892 1983.53 965.547 1984.03 979.167C1988.4 1099.75 1985.67 1220.37 1985.79 1340.97C1986.21 1769.26 1985.95 2197.54 1985.95 2625.83C1985.95 2628.83 1985.99 2631.83 1985.94 2634.83C1985.77 2645.32 1985.25 2645.81 1974.34 2645.95C1972 2645.98 1969.67 2645.96 1967.34 2645.96C1325.08 2645.96 682.817 2645.96 40.5562 2645.95C20.5285 2645.95 21.963 2647.42 21.9628 2627.79C21.9567 2085.86 21.932 1543.92 22.0482 1001.98C22.0529 980.031 22.508 958.011 24.3189 936.155C27.3668 899.371 31.9659 862.757 38.7532 826.405C48.0719 776.495 61.0815 727.6 78.5518 679.998C88.8687 651.887 100.756 624.326 112.642 596.822C132.528 550.81 158.148 507.882 185.54 466.062C204.146 437.656 224.846 410.728 246.309 384.349C272.868 351.707 301.991 321.514 332.615 292.851C354.931 271.963 378.703 252.579 402.41 233.241C432.396 208.781 464.765 187.577 497.873 167.673C533.272 146.392 569.797 127.186 607.795 110.708C641.787 95.9666 676.389 83.0621 711.644 71.8456C756.155 57.6845 801.547 47.0676 847.727 40.1377C873.689 36.2419 899.76 32.7412 925.904 30.4688C966.748 26.9187 1007.8 26.5817 1048.7 28.4852C1090.85 30.4474 1132.9 34.8256 1175.37 42.442ZM341.085 1489.89C393.978 1566.66 458.107 1632.49 533.81 1686.88C662.566 1779.4 806.434 1829.25 964.592 1837.46C1027.7 1840.74 1090.49 1836.41 1152.62 1824.34C1329.38 1790.01 1478.84 1706.37 1599.21 1572.78C1728.32 1429.51 1796.28 1260.29 1805.34 1067.69C1808.74 995.414 1801.95 923.809 1785.19 853.393C1744.1 680.833 1656.23 536.403 1520.74 422.009C1376.74 300.426 1209.44 238.262 1021.21 232.57C968.102 230.964 915.288 235.285 862.994 244.624C748.136 265.136 642.549 308.401 546.558 374.848C353.333 508.603 222.253 723.611 202.436 972.425C197.147 1038.82 200.317 1104.92 211.534 1170.63C231.237 1286.07 274.296 1392.01 341.085 1489.89ZM797 2302.67C586.721 2302.67 376.443 2302.67 166.164 2302.67C162.499 2302.67 158.812 2302.51 155.179 2302.86C153.701 2303.01 152.341 2304.35 150.151 2305.58C159.017 2308.32 1821.39 2309.99 1858.33 2307.62C1860.08 2307.51 1861.79 2306.71 1865.73 2305.62C1861.97 2304.09 1860.38 2302.99 1858.72 2302.86C1854.74 2302.55 1850.73 2302.67 1846.73 2302.67C1497.49 2302.67 1148.24 2302.67 797 2302.67ZM719.561 2158.99C720.347 2152.37 723.17 2146.78 728.785 2143.11C733.79 2139.84 738.135 2142.21 738.241 2148.1C738.288 2150.73 737.805 2153.41 737.256 2156C734.358 2169.68 731.338 2183.33 728.416 2197C727.533 2201.13 726.828 2205.3 725.9 2210.2C731.867 2210.2 736.655 2210.2 741.273 2210.2C741.955 2208.66 742.52 2207.8 742.726 2206.85C745.221 2195.48 747.719 2184.1 750.101 2172.7C752.074 2163.25 754.211 2153.83 755.668 2144.3C756.611 2138.13 755.247 2132.16 749.36 2128.57C743.288 2124.86 737.143 2126.02 731.372 2129.4C728.344 2131.18 725.651 2133.53 722.877 2135.57C712.731 2123.96 709.172 2123.67 693.218 2132.78C689.127 2125.48 682.886 2128.38 677.199 2128.94C671.561 2144.27 660.009 2202.75 661.169 2210.16C665.64 2210.16 670.145 2210.16 675.065 2210.16C676.049 2206.06 676.971 2202.54 677.727 2198.99C680.568 2185.65 683.225 2172.26 686.245 2158.95C687.112 2155.13 688.459 2151.22 690.492 2147.91C693.747 2142.61 698.791 2140.43 702.023 2142.41C706.38 2145.07 705.086 2149.33 704.29 2153.19C701.196 2168.18 697.963 2183.15 694.846 2198.14C694.057 2201.93 693.506 2205.77 692.767 2210.04C698.671 2210.04 703.438 2210.04 708.594 2210.04C712.219 2193.07 715.691 2176.83 719.561 2158.99ZM634.963 2179.72C632.935 2189.68 630.906 2199.64 628.793 2210C635.048 2210 639.821 2210 644.156 2210C644.882 2208.54 645.312 2207.97 645.449 2207.35C648.225 2194.66 651.071 2181.98 653.677 2169.25C655.412 2160.78 657.117 2152.28 658.225 2143.71C659.024 2137.54 657.907 2131.56 651.607 2128.23C645.346 2124.93 639.283 2126.2 633.597 2129.75C630.844 2131.46 628.378 2133.64 627.258 2134.49C621.307 2131.39 616.585 2127.03 611.755 2126.91C606.329 2126.77 600.807 2130.45 595.291 2132.49C591.812 2125.19 585.617 2128.66 579.074 2128.73C573.358 2155.79 567.685 2182.64 561.839 2210.31C567.797 2210.31 572.356 2210.31 577.625 2210.31C578.472 2207.04 579.399 2203.9 580.093 2200.7C583.208 2186.38 586.148 2172.02 589.41 2157.73C590.207 2154.24 591.499 2150.67 593.417 2147.68C596.774 2142.45 601.785 2140.34 605.047 2142.39C609.348 2145.09 607.879 2149.34 607.315 2153.23C607.173 2154.21 606.807 2155.16 606.598 2156.14C603.33 2171.45 600.029 2186.76 596.853 2202.09C596.339 2204.57 596.394 2207.16 596.14 2210.26C601.471 2210.26 606 2210.26 611.113 2210.26C612.13 2206 613.119 2202.17 613.945 2198.32C616.736 2185.29 619.194 2172.18 622.368 2159.25C623.519 2154.56 625.926 2150.02 628.509 2145.89C630.492 2142.71 634.04 2140.58 638.009 2142.21C642.401 2144.02 641.664 2148 640.9 2151.68C639.073 2160.49 637.22 2169.29 634.963 2179.72ZM729.01 1949.9C738.568 1949.9 748.126 1949.9 758.18 1949.9C759.317 1944.29 760.213 1939.87 761.277 1934.62C735.711 1934.62 711.207 1934.62 685.694 1934.62C678.448 1968.78 671.234 2002.79 663.709 2038.27C690.1 2038.29 714.863 2038.62 740.155 2038.02C741.18 2032.54 741.999 2028.16 743.1 2022.28C723.771 2022.28 705.932 2022.28 686.38 2022.28C688.576 2011.48 690.454 2002.24 692.517 1992.1C705.654 1992.1 717.849 1992.1 730.576 1992.1C731.755 1986.74 732.72 1982.35 734.022 1976.43C720.933 1976.43 709.116 1976.43 695.899 1976.43C698.065 1966.68 699.882 1958.49 701.789 1949.9C711.083 1949.9 719.055 1949.9 729.01 1949.9ZM943.818 2002.6C948.538 1980.25 953.258 1957.9 958.169 1934.64C951.283 1934.64 945.797 1934.64 939.527 1934.64C938.415 1939.31 937.263 1943.76 936.302 1948.25C932.682 1965.17 929.146 1982.11 925.531 1999.03C924.128 2005.61 922.095 2011.87 917.14 2016.83C909.647 2024.32 897.504 2026.5 888.562 2021.79C880.613 2017.6 878.43 2010.85 880.981 1998.31C881.113 1997.66 881.32 1997.02 881.458 1996.37C885.246 1978.46 889.063 1960.56 892.776 1942.64C893.282 1940.2 893.263 1937.65 893.532 1934.65C887.185 1934.65 881.718 1934.65 876.68 1934.65C875.885 1935.86 875.32 1936.37 875.191 1936.98C870.311 1959.75 865.038 1982.44 860.791 2005.33C858.276 2018.88 865.95 2030.98 878.805 2036.63C903.944 2047.68 931.464 2036.32 941.292 2010.81C942.129 2008.64 942.736 2006.38 943.818 2002.6ZM457.032 2187.65C458.056 2184.07 459.081 2180.5 460.31 2176.21C452.855 2176.21 446.964 2176.21 441.218 2176.21C439.065 2180.14 437.461 2183.84 435.185 2187.07C429.357 2195.35 420.983 2197.77 411.413 2196.03C402.262 2194.36 397.938 2187.53 396.5 2179.24C393.733 2163.29 396.261 2148.02 404.9 2134.13C409.288 2127.07 415.567 2122.28 423.942 2120.73C434.007 2118.86 441.683 2123.31 445.069 2132.9C445.92 2135.31 446.653 2137.77 447.327 2139.85C454.135 2139.85 460.204 2139.85 466.12 2139.85C468.239 2122.1 455.279 2109.33 441.727 2106C419.694 2100.6 397.733 2109.5 385.857 2129.21C376.146 2145.32 373.646 2163.05 376.528 2181.23C378.888 2196.12 387.419 2207.33 402.636 2210.92C423.358 2215.82 445.979 2210.37 457.032 2187.65ZM1209.13 2127.44C1195.79 2124.75 1183.18 2126.69 1171.88 2134.31C1165.24 2138.79 1159.84 2144.53 1160.22 2153.98C1162.63 2154.3 1164.55 2154.74 1166.48 2154.76C1169.43 2154.79 1172.38 2154.53 1175 2154.41C1183.27 2141.71 1191.21 2137.8 1203.3 2140.16C1214.11 2142.27 1218.24 2149.94 1213.88 2161.66C1206.04 2161.66 1197.7 2160.99 1189.52 2161.87C1182.38 2162.63 1174.96 2164.11 1168.51 2167.1C1158.37 2171.8 1153.98 2182.99 1156.26 2194.1C1158.3 2204.04 1167.41 2211.28 1178.62 2212.31C1188.37 2213.2 1196.98 2210.42 1204.74 2204.71C1208.79 2211.89 1211.97 2212.57 1223.67 2208.81C1227.04 2192.55 1230.78 2176.02 1233.81 2159.36C1235.89 2147.89 1232.36 2138.16 1221.83 2132.06C1218.44 2130.1 1214.46 2129.14 1209.13 2127.44ZM524.132 2126.51C501.105 2125.88 485.213 2135.01 477.438 2153.53C473.217 2163.59 472.029 2174.09 473.843 2184.84C475.755 2196.18 482.071 2204.32 492.487 2209.12C510.245 2217.31 533.848 2211.56 545.853 2196.06C552.811 2187.08 555.928 2176.71 556.191 2165.39C556.715 2142.83 547.888 2131.55 524.132 2126.51ZM1511.44 2202.56C1526.11 2189.65 1529.85 2172.87 1527.55 2154.47C1526.14 2143.19 1519.74 2134.8 1509.19 2129.98C1487.61 2120.13 1460.73 2129.75 1450.42 2151.15C1445.53 2161.29 1443.88 2172.07 1445.5 2183.26C1447.87 2199.71 1459.76 2210.85 1476.32 2212.2C1488.66 2213.21 1500.25 2211.31 1511.44 2202.56ZM1159.74 1977.02C1153.95 1987.31 1152.84 1998.5 1153.87 2009.95C1155.01 2022.61 1161.58 2031.77 1173.21 2036.94C1194.18 2046.26 1220.08 2036.98 1230.69 2016.63C1235.81 2006.83 1236.95 1996.37 1236.3 1985.58C1235.41 1970.81 1226.59 1959.84 1212.43 1955.77C1195.78 1950.97 1172.2 1955.4 1159.74 1977.02ZM1558.69 2195.85C1560.63 2186.73 1562.72 2177.65 1564.47 2168.49C1566.59 2157.46 1573.45 2150.07 1582.72 2144.79C1588.69 2141.38 1595.41 2139.88 1601.64 2144.18C1608 2148.56 1606.78 2155.31 1605.59 2161.53C1603.45 2172.64 1600.83 2183.65 1598.5 2194.73C1597.49 2199.53 1596.7 2204.38 1595.67 2210.01C1602.08 2210.01 1607.44 2210.01 1613.38 2210.01C1617.36 2190.75 1621.68 2172.28 1624.85 2153.61C1627.06 2140.58 1619.01 2130.24 1606.01 2127.19C1597.1 2125.1 1588.85 2127.05 1581 2131.32C1578.45 2132.71 1576 2134.32 1573.08 2136.1C1572.03 2133.11 1571.21 2130.8 1570.23 2128.01C1564.93 2128.27 1560.12 2128.51 1554.93 2128.76C1549.14 2156.26 1543.54 2182.83 1537.75 2210.26C1544.29 2210.26 1549.47 2210.26 1555.33 2210.26C1556.39 2205.78 1557.37 2201.63 1558.69 2195.85ZM943.553 2160.78C943.882 2158.48 944.337 2156.18 944.52 2153.87C945.758 2138.18 936.726 2127.02 921.016 2126.69C914.351 2126.55 907.548 2129.34 900.952 2131.29C898.236 2132.1 895.9 2134.19 892.929 2135.97C891.843 2133.05 890.987 2130.76 889.966 2128.02C884.688 2128.26 879.851 2128.48 874.646 2128.72C868.856 2156.16 863.252 2182.71 857.499 2209.97C864.211 2209.97 869.58 2209.97 875.314 2209.97C878.343 2195.88 881.478 2182.62 883.979 2169.25C886.121 2157.8 892.989 2150.15 902.574 2144.69C908.57 2141.27 915.305 2139.9 921.466 2144.22C927.727 2148.62 926.576 2155.3 925.304 2161.57C922.66 2174.6 919.751 2187.58 917.038 2200.6C916.447 2203.44 916.221 2206.35 915.708 2210.1C921.672 2210.1 926.77 2210.1 932.803 2210.1C936.284 2194.07 939.725 2178.23 943.553 2160.78ZM843.136 2168.3C845.79 2155.38 848.444 2142.47 851.269 2128.72C844.779 2128.72 839.641 2128.72 834.103 2128.72C833.291 2131.61 832.46 2134.1 831.896 2136.65C829.312 2148.34 826.847 2160.05 824.254 2171.74C821.571 2183.82 813.696 2191.62 802.584 2195.87C789.31 2200.95 780.645 2193.49 783.31 2179.58C785.812 2166.53 788.787 2153.56 791.463 2140.53C792.231 2136.8 792.686 2133 793.347 2128.84C786.911 2128.84 781.78 2128.84 775.815 2128.84C771.849 2148.21 767.983 2167.06 764.156 2185.92C763.961 2186.88 764.071 2187.91 764.096 2188.9C764.408 2201.67 772.921 2210.87 785.579 2212.2C796.018 2213.3 805.333 2210.66 813.594 2204.15C814.5 2203.44 815.862 2203.3 817.089 2202.87C817.617 2205.58 818.045 2207.79 818.52 2210.23C823.753 2210.23 828.584 2210.23 834.138 2210.23C837.057 2196.49 839.88 2183.21 843.136 2168.3ZM983.251 1989.1C985.878 1985.67 987.976 1981.58 991.261 1978.99C995.845 1975.38 1000.99 1971.54 1006.47 1970.2C1018.44 1967.29 1025.12 1974.28 1022.9 1986.43C1021.11 1996.25 1018.8 2005.98 1016.8 2015.77C1015.35 2022.82 1014.03 2029.89 1012.5 2037.73C1018.84 2037.73 1024 2037.73 1030.29 2037.73C1034.22 2018.26 1038.92 1999.18 1041.67 1979.83C1043.65 1965.92 1033.62 1955.58 1019.53 1954.22C1009 1953.2 999.861 1956.58 991.746 1963.17C991.055 1963.73 989.997 1963.84 988.849 1964.25C988.309 1961.51 987.824 1959.06 987.357 1956.7C981.988 1956.7 977.172 1956.7 971.75 1956.7C966.033 1983.85 960.444 2010.39 954.693 2037.7C961.402 2037.7 966.545 2037.7 972.448 2037.7C975.919 2021.7 979.297 2006.12 983.251 1989.1ZM1290.07 1958.55C1287.07 1960.5 1284.07 1962.45 1280.68 1964.65C1280.06 1961.46 1279.58 1959.01 1279.12 1956.69C1273.69 1956.69 1268.87 1956.69 1263.33 1956.69C1257.62 1983.79 1252.02 2010.31 1246.25 2037.71C1252.79 2037.71 1257.95 2037.71 1263.66 2037.71C1264.56 2034.23 1265.49 2031.08 1266.2 2027.88C1268.71 2016.51 1270.77 2005.02 1273.71 1993.76C1276.89 1981.55 1285.17 1973.46 1297.19 1970.23C1309.22 1967 1315.84 1973.36 1314.46 1985.74C1314.17 1988.38 1313.63 1991 1313.08 1993.61C1310.5 2005.99 1307.83 2018.35 1305.29 2030.74C1304.86 2032.85 1304.94 2035.06 1304.76 2037.63C1310.72 2037.63 1315.87 2037.63 1321.79 2037.63C1325.81 2018.26 1330.33 1999.5 1333.42 1980.5C1335.49 1967.74 1326.56 1957 1313.74 1954.61C1305.98 1953.16 1298.49 1954.33 1290.07 1958.55ZM1117 2185.26C1115.17 2187.61 1113.63 2190.29 1111.46 2192.27C1100.62 2202.15 1083.21 2198.95 1077.72 2186.21C1072.5 2174.1 1077.16 2155.1 1087.38 2146.85C1099.3 2137.21 1114.47 2140.72 1120.93 2154.56C1121.34 2155.45 1122.05 2156.19 1122.68 2157.1C1127.87 2157.1 1133.04 2157.1 1138.47 2157.1C1138.74 2155.21 1139.2 2153.91 1139.04 2152.69C1137.38 2139.49 1129.22 2131.69 1117.07 2128.33C1099.37 2123.43 1083 2126.74 1070.22 2140.32C1057.02 2154.34 1054.52 2171.48 1059.6 2189.69C1061.63 2196.96 1066.51 2202.53 1072.87 2206.66C1089.22 2217.28 1115.26 2213.54 1127.67 2198.57C1131.37 2194.11 1135.08 2189.37 1134.67 2181.34C1128.6 2182.29 1123.24 2183.13 1117 2185.26ZM1305.7 2127.95C1300.47 2127.25 1301.88 2123.48 1302.29 2120.32C1302.87 2115.85 1303.65 2111.4 1304.64 2105.03C1297.75 2108.1 1291.64 2109.3 1287.89 2112.94C1284.44 2116.28 1283.53 2122.24 1281.3 2127.55C1275.99 2127.93 1270.44 2128.32 1264.26 2128.75C1263.38 2133.2 1262.57 2137.26 1261.65 2141.87C1267.75 2142.67 1272.8 2143.33 1278.82 2144.13C1276.62 2154.76 1274.52 2164.14 1272.79 2173.58C1271.59 2180.1 1270.2 2186.7 1270.17 2193.28C1270.12 2201.95 1275.24 2208.26 1283.43 2209.74C1295.55 2211.93 1307.8 2210.91 1320.45 2210.57C1321.41 2205.48 1322.18 2201.43 1323.18 2196.1C1314.19 2196.1 1306.59 2196.26 1299.01 2196.05C1289.5 2195.79 1287.02 2192.85 1288.81 2183.56C1290.94 2172.45 1293.79 2161.47 1295.79 2150.34C1296.85 2144.46 1299.98 2142.72 1305.45 2142.84C1310.64 2142.95 1315.84 2142.47 1321.47 2142.23C1322.3 2137.24 1322.97 2133.23 1323.83 2128.06C1317.38 2128.06 1312.43 2128.06 1305.7 2127.95ZM1015.21 2196.13C1012.3 2195.91 1009.38 2195.69 1005.04 2195.37C1009.62 2172.9 1014.03 2151.27 1018.7 2128.36C1005.74 2128.21 994.322 2127.48 982.467 2128.82C981.555 2133.69 980.802 2137.7 979.995 2142.01C986.247 2142.75 991.069 2143.33 997.443 2144.09C993.703 2161.94 990.194 2178.68 986.48 2196.4C976.351 2196.4 967.193 2196.4 957.547 2196.4C956.554 2201.53 955.773 2205.57 954.874 2210.22C980.322 2210.22 1004.48 2210.22 1029.21 2210.22C1030.18 2205.64 1031.05 2201.59 1032.21 2196.13C1026.23 2196.13 1021.64 2196.13 1015.21 2196.13ZM1401.01 2160.18C1403.09 2149.91 1405.18 2139.64 1407.41 2128.67C1394.71 2128.67 1383.54 2128.67 1371.63 2128.67C1370.61 2133.08 1369.68 2137.11 1368.61 2141.77C1374.87 2142.63 1380.2 2143.37 1386.31 2144.21C1382.45 2162.19 1378.85 2178.95 1375.12 2196.3C1364.96 2196.3 1356.05 2196.3 1346.52 2196.3C1345.51 2201.08 1344.65 2205.13 1343.6 2210.13C1368.87 2210.13 1392.98 2210.13 1417.97 2210.13C1418.77 2205.94 1419.55 2201.88 1420.62 2196.3C1411.3 2196.3 1403.14 2196.3 1393.5 2196.3C1396.08 2183.76 1398.34 2172.79 1401.01 2160.18ZM1111.48 2023.92C1108.64 2023.68 1105.79 2023.43 1102.07 2023.11C1106.76 2000.55 1111.25 1978.93 1115.91 1956.51C1103.31 1956.51 1092.12 1956.51 1080.04 1956.51C1079.21 1960.66 1078.4 1964.68 1077.49 1969.26C1083.54 1970.05 1088.59 1970.71 1094.75 1971.52C1090.99 1989.31 1087.45 2006.1 1083.69 2023.89C1073.86 2023.89 1064.66 2023.89 1054.94 2023.89C1053.88 2028.91 1053.04 2032.91 1052.02 2037.73C1077.41 2037.73 1101.54 2037.73 1126.42 2037.73C1127.33 2033.38 1128.17 2029.35 1129.31 2023.92C1123.08 2023.92 1118.18 2023.92 1111.48 2023.92ZM507.407 2432.75C504.879 2431.32 502.174 2430.13 499.872 2428.4C497.453 2426.58 495.352 2425.77 492.928 2428.08C495.441 2436.69 500.886 2440.14 510.789 2439.46C520.916 2438.77 526.863 2433.91 527.546 2424.38C528.211 2415.09 527.858 2405.73 527.828 2396.41C527.819 2393.58 527.397 2390.75 527.068 2386.75C520.973 2389.79 516.191 2388.26 511.151 2386.81C504.767 2384.97 497.341 2388.4 493.963 2394.23C489.797 2401.43 489.803 2408.91 494.047 2416.08C497.596 2422.08 504.4 2424.91 511.26 2423.49C513.979 2422.93 516.6 2421.89 519.504 2421C518.849 2430.78 518.755 2430.87 507.407 2432.75ZM233.661 2407.64C234.319 2411.57 234.94 2415.5 235.647 2419.42C236.169 2422.3 236.163 2425.53 240.342 2425.92C244.823 2426.33 245.866 2423.46 246.749 2419.97C247.915 2415.38 249.387 2410.86 250.728 2406.3C251.409 2406.31 252.09 2406.31 252.771 2406.32C253.764 2409.3 254.816 2412.27 255.732 2415.28C256.505 2417.81 256.605 2420.73 257.976 2422.85C258.975 2424.4 261.545 2425.63 263.436 2425.66C264.796 2425.68 267.154 2423.67 267.417 2422.25C269.517 2410.98 271.224 2399.64 273.008 2388.58C267.516 2386.4 266.472 2388.91 265.919 2392.27C265.089 2397.33 264.151 2402.37 263.258 2407.41C262.566 2407.45 261.874 2407.49 261.181 2407.52C260.248 2405.27 259.132 2403.07 258.427 2400.75C257.465 2397.58 257.116 2394.19 255.907 2391.14C255.305 2389.62 253.429 2387.73 252.027 2387.64C250.693 2387.56 248.713 2389.33 247.941 2390.77C246.879 2392.76 246.684 2395.21 246.121 2397.47C245.145 2401.37 245.06 2405.64 241.104 2410.78C239.826 2403.26 238.853 2397.83 237.99 2392.37C237.36 2388.38 235.759 2386.21 230.53 2388.66C231.474 2394.35 232.437 2400.15 233.661 2407.64ZM1387.63 2426.53C1392.81 2423.52 1398.38 2424.43 1404.8 2425.87C1404.8 2416.03 1405.44 2407.12 1404.61 2398.35C1403.9 2390.75 1397.46 2386.56 1388.69 2386.3C1379.07 2386.02 1373.59 2389.88 1371.36 2398.56C1375.36 2401.33 1377.08 2398.21 1379.34 2395.73C1382.87 2391.87 1387.48 2391.25 1392.15 2393.05C1395.77 2394.44 1398.07 2397.05 1396.68 2401.6C1390.89 2402.52 1385.15 2402.74 1379.89 2404.43C1371.29 2407.19 1368.53 2418.27 1375.15 2423.42C1377.97 2425.62 1382.46 2425.68 1387.63 2426.53ZM1018.42 2424.95C1022.65 2425.49 1026.93 2426.72 1031.11 2426.44C1038.56 2425.94 1043.2 2421.53 1043.61 2415.8C1044.01 2410.32 1040.6 2406.47 1033.24 2404.28C1029.74 2403.25 1026.03 2402.75 1022.69 2401.35C1021.25 2400.74 1019.55 2398.37 1019.69 2396.97C1019.85 2395.47 1021.79 2393.49 1023.38 2392.93C1027.8 2391.36 1031.93 2392.3 1035.01 2396.16C1036.82 2398.41 1038.66 2400.18 1041.59 2397.84C1039.84 2389.15 1032.99 2384.96 1023.24 2386.57C1016.42 2387.7 1011.81 2391.59 1011.18 2396.76C1010.51 2402.22 1013.71 2405.85 1021.37 2408.24C1025.17 2409.43 1029.08 2410.32 1032.75 2411.82C1033.98 2412.33 1035.53 2414.49 1035.3 2415.56C1034.96 2417.19 1033.5 2419.11 1032 2419.86C1027.37 2422.16 1022.27 2420.61 1018.22 2415.43C1016.05 2412.65 1014.33 2410.96 1011.02 2413.61C1010.62 2418.59 1013.31 2421.72 1018.42 2424.95ZM1709.23 2424.57C1718.39 2415.73 1716.62 2407.75 1704.67 2404.25C1701.16 2403.23 1697.45 2402.78 1694.09 2401.43C1692.58 2400.82 1690.74 2398.58 1690.82 2397.18C1690.9 2395.67 1692.79 2393.54 1694.35 2392.98C1699.13 2391.29 1703.52 2392.18 1706.8 2396.51C1708.6 2398.87 1710.68 2400.21 1713.39 2397.7C1711.35 2390.1 1708.28 2387.22 1700.63 2386.49C1694.05 2385.87 1687.84 2386.91 1683.94 2393.06C1681.2 2397.38 1682.21 2402.43 1686.67 2405.31C1689.39 2407.07 1692.74 2407.89 1695.86 2408.99C1698.67 2409.99 1701.76 2410.41 1704.3 2411.84C1705.68 2412.61 1706.79 2414.93 1706.85 2416.59C1706.89 2417.69 1705.03 2419.27 1703.67 2419.91C1698.96 2422.12 1693.71 2420.61 1689.83 2415.6C1687.74 2412.9 1686.1 2410.85 1682.48 2413.76C1682.54 2420.86 1686.9 2424.86 1693.21 2425.94C1697.93 2426.74 1703 2425.57 1709.23 2424.57ZM1195.3 2391.6C1192.71 2390.16 1190.28 2388.27 1187.52 2387.36C1179.31 2384.68 1170.64 2387.38 1165.99 2393.66C1160.77 2400.69 1160.87 2412.98 1166.2 2419.94C1170.74 2425.89 1179.8 2428.38 1187.97 2425.93C1196.06 2423.5 1201.15 2416.5 1200.53 2406.68C1200.23 2401.95 1197.8 2397.35 1195.3 2391.6ZM1117.61 2388.02C1115.86 2388.11 1114.11 2388.19 1111.17 2388.33C1115.57 2398.79 1119.63 2408.17 1123.48 2417.63C1127.18 2426.72 1124.87 2431 1115.3 2433.43C1114.1 2433.73 1112.94 2434.19 1111.63 2434.62C1111.8 2436.02 1111.65 2437.13 1112.11 2437.83C1112.58 2438.55 1113.61 2439.15 1114.48 2439.33C1121.51 2440.77 1127.54 2437.55 1131.08 2429.77C1135.88 2419.21 1140.25 2408.45 1144.74 2397.75C1145.98 2394.8 1147.01 2391.75 1148.12 2388.82C1144.05 2386.58 1141.64 2387.47 1140.1 2390.79C1138.71 2393.8 1137.6 2396.95 1136.08 2399.89C1134.07 2403.77 1133.78 2408.72 1129.22 2412.07C1125.49 2403.87 1122.08 2396.38 1117.61 2388.02ZM622.123 2388.22C617.9 2387.7 613.603 2386.42 609.469 2386.82C602.605 2387.48 598.305 2391.96 597.956 2397.29C597.615 2402.51 600.487 2405.76 607.716 2408.07C611.192 2409.18 614.943 2409.62 618.192 2411.15C619.873 2411.95 621.866 2414.65 621.647 2416.19C621.42 2417.79 618.896 2419.81 617.023 2420.3C612.176 2421.57 607.714 2420.44 604.977 2415.74C603.288 2412.84 601.524 2410.85 598.07 2413.25C599.613 2423.88 607.296 2428.63 619.072 2426.37C626.108 2425.03 629.913 2421.31 630.136 2415.56C630.355 2409.92 627.63 2406.58 620.735 2404.47C617.248 2403.4 613.481 2403.1 610.162 2401.69C608.433 2400.96 606.172 2398.4 606.376 2396.99C606.617 2395.32 609.03 2393.23 610.904 2392.67C614.943 2391.46 618.845 2392.41 621.583 2396.03C623.57 2398.66 625.623 2400.53 629.898 2396.82C627.75 2394.18 625.607 2391.56 622.123 2388.22ZM939.287 2394.31C937.641 2392.69 936.212 2390.73 934.31 2389.5C926.483 2384.44 915.553 2385.51 909.388 2391.7C903.365 2397.74 902.018 2409.84 906.48 2417.8C910.614 2425.18 919.835 2428.57 929.114 2426.13C937.709 2423.86 942.604 2416.8 942.254 2406.3C942.136 2402.75 940.843 2399.23 939.287 2394.31ZM754.798 2387.52C752.032 2387.34 750.259 2388.42 750.264 2391.39C750.276 2399.02 749.771 2406.71 750.574 2414.26C751.542 2423.36 758.996 2428.86 767.598 2426.24C773.179 2424.54 778.287 2424.02 783.595 2425.78C785.142 2420.35 786.289 2394.32 785.193 2390.72C783.923 2386.55 781.401 2386.79 777.8 2389.29C777.8 2394.28 778.143 2399.59 777.679 2404.84C777.369 2408.34 776.49 2412.06 774.822 2415.11C772.577 2419.22 768.461 2420.99 763.743 2419.75C759.085 2418.53 757.99 2414.71 757.947 2410.44C757.899 2405.79 758.087 2401.14 757.811 2396.51C757.641 2393.67 756.791 2390.87 754.798 2387.52ZM669.69 2386.84C667.708 2386.67 665.706 2386.24 663.75 2386.39C655.791 2387 649.477 2390.54 647.016 2398.38C644.539 2406.28 644.689 2414.3 650.561 2420.99C659.474 2431.13 678.126 2427.69 682.839 2415.16C687.294 2403.32 682.937 2392.89 669.69 2386.84ZM1663.55 2419.76C1663.54 2410.76 1663.6 2401.76 1663.5 2392.77C1663.44 2387.61 1660.92 2386.51 1655.75 2389C1655.75 2395.61 1656.18 2402.28 1655.63 2408.87C1655.06 2415.65 1649.52 2420.38 1643.76 2420.05C1638.36 2419.74 1636.16 2416.56 1636 2408.33C1635.87 2401.75 1635.97 2395.16 1635.97 2388.92C1631.69 2386.94 1628.67 2387.01 1628.52 2391.25C1628.23 2399.22 1627.89 2407.32 1628.92 2415.18C1630.09 2424.12 1637.9 2428.54 1646.82 2426.22C1650.99 2425.14 1654.9 2421.76 1659.4 2425.58C1659.5 2425.67 1662.06 2422.87 1663.55 2419.76ZM1422.31 2399.57C1422.33 2406.55 1422.3 2413.52 1422.41 2420.49C1422.47 2424.63 1424.17 2426.79 1429.05 2424.85C1429.34 2423.08 1429.86 2421.18 1429.93 2419.25C1430.12 2414.28 1429.72 2409.25 1430.26 2404.33C1431 2397.63 1436.56 2392.86 1442.25 2393.33C1447.47 2393.77 1449.72 2397.17 1449.92 2405.19C1450.04 2410.17 1449.9 2415.15 1450.04 2420.13C1450.11 2422.78 1450.2 2426.15 1454 2425.42C1455.44 2425.14 1457.29 2422.31 1457.39 2420.55C1457.78 2413.94 1457.99 2407.24 1457.4 2400.65C1456.34 2388.75 1447.24 2383.6 1435.97 2388.17C1433.35 2389.23 1431.58 2391.23 1428.32 2388.15C1425.83 2385.8 1422.66 2387.73 1422.43 2391.81C1422.31 2393.79 1422.34 2395.79 1422.31 2399.57ZM446.908 2425.15C447.385 2419.94 447.764 2414.72 448.377 2409.53C448.759 2406.29 448.926 2402.84 450.197 2399.92C452.471 2394.71 457.73 2392.25 462.337 2393.48C467.625 2394.9 468.334 2399.07 468.358 2403.62C468.383 2408.6 468.27 2413.58 468.461 2418.55C468.568 2421.33 467.595 2425.23 471.979 2425.51C476.613 2425.81 475.833 2421.84 475.911 2419.06C476.07 2413.42 476.151 2407.76 475.91 2402.13C475.35 2389.01 466.167 2383.33 453.996 2388.46C452.497 2389.1 451.103 2389.98 450.922 2390.08C447.325 2388.9 444.883 2388.1 441.176 2386.89C441.176 2399.49 441.141 2410.4 441.202 2421.3C441.216 2423.88 442.195 2425.85 446.908 2425.15ZM1250.06 2397.65C1249.92 2394.46 1249.78 2391.26 1249.65 2388.46C1244.75 2386.85 1242.74 2388.24 1242.64 2392.2C1242.53 2396.86 1242.97 2401.57 1242.37 2406.16C1241.92 2409.63 1240.8 2413.29 1238.95 2416.22C1236.65 2419.88 1232.6 2421 1228.34 2419.77C1224.21 2418.57 1222.86 2415.09 1222.61 2411.27C1222.32 2406.96 1222.49 2402.62 1222.37 2398.3C1222.27 2394.82 1222.04 2391.34 1221.88 2388.29C1217.24 2387.01 1215.36 2388.27 1215.37 2391.75C1215.38 2399.4 1215 2407.11 1215.77 2414.69C1216.63 2423.31 1223.78 2428.55 1232.17 2426.23C1237.77 2424.68 1242.98 2423.57 1250.06 2426.44C1250.06 2416.53 1250.06 2408 1250.06 2397.65ZM1350.68 2412.64C1347.56 2414.99 1344.73 2417.94 1341.27 2419.56C1336.21 2421.94 1330.29 2419.42 1327.52 2414.62C1324.11 2408.72 1325.57 2399.01 1330.42 2395.32C1335.16 2391.7 1341.16 2391.99 1345.72 2396.66C1348.11 2399.12 1349.76 2402.18 1354.14 2399.05C1353.99 2393.47 1350.57 2390.25 1345.76 2388.09C1336.76 2384.05 1325.97 2387.13 1321.02 2395.07C1315.73 2403.56 1317.47 2416.56 1324.7 2422.57C1333.14 2429.59 1347.61 2427.77 1353.01 2418.9C1354.33 2416.72 1356.12 2414.06 1350.68 2412.64ZM991.832 2423.63C991.95 2415.68 992.539 2407.7 992.068 2399.78C991.496 2390.16 983.559 2384.12 974.852 2387.24C969.416 2389.19 964.448 2389.52 958.477 2387.86C958.477 2400.77 958.477 2412.88 958.477 2424.73C963.045 2426.64 964.811 2424.88 964.97 2421.1C965.208 2415.47 964.854 2409.78 965.467 2404.2C966.221 2397.33 971.649 2392.64 977.35 2393.11C982.529 2393.54 984.813 2396.93 985.085 2405.02C985.264 2410.32 985.147 2415.64 985.264 2420.95C985.347 2424.71 986.943 2426.61 991.832 2423.63ZM810.482 2385.82C807.804 2387.09 805.126 2388.36 800.625 2390.5C805.572 2392.74 808.383 2394.01 811.9 2395.61C811.9 2401.84 811.849 2408.1 811.916 2414.37C811.971 2419.43 813.794 2424 818.936 2425.17C824.983 2426.56 831.476 2427.86 837.663 2423.44C834.417 2418.37 830.014 2420.33 826.405 2419.91C822.649 2419.48 819.843 2418.18 819.72 2414.09C819.524 2407.6 819.668 2401.1 819.668 2396.02C824.051 2392.36 829.494 2395.44 831.535 2388.96C827.703 2387.79 824.18 2386.72 820.813 2385.69C819.777 2382.78 818.84 2380.15 817.086 2375.23C814.438 2379.56 812.888 2382.09 810.482 2385.82ZM1745.6 2423.52C1752.64 2427.5 1759.64 2426.76 1767.84 2424.39C1763.46 2420.47 1763.46 2420.47 1757.51 2419.95C1750.68 2419.35 1749.55 2418.4 1749.19 2411.48C1748.91 2405.95 1749.14 2400.39 1749.14 2394.84C1753.11 2391.9 1760.5 2395.88 1760.45 2388.19C1756.72 2387.41 1753.56 2386.76 1750.57 2386.13C1749.49 2382.93 1748.59 2380.24 1747.32 2376.47C1741.54 2381.12 1739.94 2388.82 1732.45 2391.31C1735.24 2392.58 1738.02 2393.85 1741.77 2395.55C1741.77 2400.38 1741.44 2405.69 1741.88 2410.92C1742.2 2414.76 1743.53 2418.52 1745.6 2423.52ZM1549.98 2393.37C1551.4 2392.25 1552.83 2391.13 1555.73 2388.86C1550.08 2387.51 1546.68 2386.7 1543.41 2385.92C1542.48 2383.08 1541.69 2380.7 1540.89 2378.26C1535.97 2378.35 1535.87 2382.3 1533.93 2384.71C1532.13 2386.95 1528.76 2387.93 1524.76 2390.23C1528.57 2392.43 1531.2 2393.94 1534.89 2396.06C1534.89 2400.73 1534.73 2406.01 1534.92 2411.27C1535.43 2425.53 1546.96 2431.1 1559.91 2423.18C1558.02 2418.49 1553.82 2420.24 1550.58 2420.03C1546.07 2419.73 1542.01 2418.4 1542.56 2413.37C1543.28 2406.76 1538.1 2398.82 1546.4 2393.73C1546.91 2393.41 1547.7 2393.56 1549.98 2393.37ZM700.854 2420.56C697.289 2424.71 700.042 2425.86 703.679 2425.93C712.318 2426.09 720.964 2426.03 729.604 2425.88C731.019 2425.86 732.419 2424.95 734.291 2424.28C731.467 2417.36 724.682 2422.05 720.221 2417.24C720.221 2411.31 720.24 2404.07 720.216 2396.83C720.191 2389.64 720.122 2382.45 720.07 2374.93C713.753 2374.57 708.638 2372.12 703.526 2377.59C705.763 2378.73 707.507 2379.34 708.893 2380.41C710.317 2381.51 712.406 2383.02 712.459 2384.42C712.895 2395.92 713.656 2407.47 711.983 2419.28C708.235 2419.63 705.313 2419.91 700.854 2420.56ZM1610.01 2391.49C1602.81 2383.73 1595.17 2385.99 1588.67 2390.06C1585.29 2388.94 1582.83 2388.13 1579.1 2386.89C1579.1 2399.56 1578.98 2410.51 1579.25 2421.45C1579.28 2422.87 1581.13 2425.16 1582.47 2425.44C1585.67 2426.12 1586.12 2423.37 1586.18 2420.95C1586.3 2415.96 1586.28 2410.96 1586.36 2405.96C1586.44 2400.43 1589.01 2396.37 1594 2394.08C1598.68 2391.92 1602.41 2393.34 1604.54 2398.04C1605.69 2400.57 1605.41 2405.08 1609.7 2403.22C1611.24 2402.56 1611.34 2398.3 1611.81 2395.63C1611.97 2394.78 1611.2 2393.77 1610.01 2391.49ZM878.398 2426.09C881.592 2426.09 884.785 2426.09 888.389 2426.09C887.77 2416.35 879.701 2422.38 875.668 2418.65C875.668 2408.53 875.668 2398.42 875.668 2388.02C869.541 2388.02 864.809 2388.02 860.186 2388.02C858.544 2395.51 866.361 2392.01 867.312 2394.95C867.312 2403.53 867.312 2411.34 867.312 2419.01C862.463 2419.85 858.473 2420.55 854.482 2421.24C854.414 2422.06 854.345 2422.88 854.277 2423.7C856.055 2424.47 857.801 2425.81 859.615 2425.91C865.256 2426.22 870.922 2426.06 878.398 2426.09ZM305.608 2387.97C300.792 2387.17 295.95 2386.12 291.554 2388.81C291.194 2395.17 297.478 2392.31 299.973 2396.55C299.973 2401.59 300.033 2407.88 299.931 2414.17C299.905 2415.76 299.359 2417.33 299.086 2418.74C294.457 2419.82 290.318 2420.78 284.873 2422.05C292.762 2427.27 313.1 2427.35 320.237 2422.99C317.733 2418.12 311.978 2421.48 308.294 2417.9C307.849 2408.74 307.369 2398.87 305.608 2387.97ZM408.849 2426.02C413.708 2425.17 419.335 2428.11 424.95 2422.01C419.906 2420.75 416.074 2419.79 411.387 2418.62C410.947 2408.57 410.506 2398.5 410.047 2388.02C404.046 2388.11 398.849 2385.44 393.8 2390.97C397.349 2392.59 400.161 2393.88 402.932 2395.14C402.932 2403.28 402.932 2411.11 402.932 2418.15C398.779 2421.87 392.668 2417.5 389.79 2423.65C395.273 2427.76 401.382 2425.28 408.849 2426.02ZM346.443 2409.65C346.214 2404.53 346.799 2399.7 350.998 2396.05C356.866 2390.93 362.686 2392.38 365.6 2399.7C366.159 2401.1 366.791 2402.48 367.375 2403.83C369.046 2403.62 370.172 2403.77 370.912 2403.31C371.624 2402.86 372.235 2401.83 372.378 2400.96C373.926 2391.65 365.467 2384.4 355.939 2387.04C353.123 2387.81 350.529 2389.4 348.579 2390.28C345.685 2389.2 343.312 2388.32 339.698 2386.97C339.698 2399.31 339.654 2409.86 339.745 2420.42C339.759 2421.99 340.41 2423.55 341.184 2426.95C343.477 2424.84 345.741 2423.76 346 2422.32C346.637 2418.78 346.353 2415.07 346.443 2409.65ZM1396.27 2115.31C1401.13 2115.31 1405.99 2115.31 1411.64 2115.31C1412.88 2108.91 1413.97 2103.35 1415.18 2097.08C1410.94 2096.82 1408.05 2096.49 1405.16 2096.49C1394.85 2096.48 1390.46 2104.29 1396.27 2115.31ZM1010.29 2096.68C1003.12 2100.77 1005.24 2107.79 1003.99 2115.29C1009.65 2115.29 1014.54 2115.57 1019.36 2115.13C1020.88 2114.99 1023.09 2113.16 1023.49 2111.7C1024.73 2107.15 1025.25 2102.41 1026.26 2096.52C1020.41 2096.52 1016.18 2096.52 1010.29 2096.68ZM1104.1 1926.71C1103.05 1931.7 1101.99 1936.69 1100.82 1942.25C1108.05 1942.25 1113.82 1942.25 1120.21 1942.25C1121.46 1936.36 1122.59 1931.05 1124.09 1923.97C1116.59 1924.53 1110.82 1924.96 1104.1 1926.71ZM304.515 2373.2C300.43 2373.02 299.029 2375.28 300.445 2378.7C300.888 2379.77 303.992 2380.81 305.199 2380.29C308.834 2378.72 308.598 2376.09 304.515 2373.2ZM871.2 2373.23C866.885 2374.34 867.261 2377.22 869.397 2379.69C870.174 2380.59 873.774 2380.57 874.53 2379.67C876.676 2377.11 876.842 2374.26 871.2 2373.23ZM409.888 2378.65C410.553 2376.04 410.073 2373.85 406.958 2374.01C405.873 2374.06 404.051 2375.83 403.995 2376.89C403.826 2380.06 406.111 2380.39 409.888 2378.65Z" fill="#747474"/>
<path d="M340.673 1489.3C274.296 1392.01 231.237 1286.07 211.534 1170.63C200.317 1104.92 197.147 1038.82 202.436 972.426C222.253 723.611 353.333 508.603 546.558 374.848C642.549 308.401 748.136 265.136 862.994 244.624C915.288 235.285 968.102 230.964 1021.21 232.57C1209.44 238.262 1376.74 300.426 1520.74 422.01C1656.23 536.403 1744.1 680.833 1785.19 853.394C1801.95 923.809 1808.74 995.414 1805.34 1067.69C1796.28 1260.29 1728.32 1429.51 1599.21 1572.78C1478.84 1706.37 1329.38 1790.01 1152.62 1824.34C1090.49 1836.41 1027.7 1840.74 964.592 1837.46C806.434 1829.25 662.566 1779.4 533.81 1686.88C458.107 1632.49 393.978 1566.66 340.673 1489.3ZM1504.05 856.83C1489.53 822.195 1475 787.56 1460.66 753.344C1457.09 753.344 1454.78 753.242 1452.47 753.359C1421.52 754.942 1390.56 756.455 1359.63 758.254C1354.18 758.57 1350.29 757.064 1346.44 753.159C1321.61 728.018 1296.65 703.008 1271.5 678.204C1267.29 674.061 1265.83 669.925 1266.21 664.138C1268.12 634.542 1269.7 604.925 1271.33 575.312C1271.53 571.729 1271.36 568.126 1271.36 563.911C1224.26 544.21 1177.34 524.583 1130.15 504.842C1127.04 508.184 1124.56 510.82 1122.12 513.493C1102.34 535.148 1082.46 556.718 1062.86 578.541C1058.57 583.328 1054.24 585.697 1047.49 585.624C1013.16 585.25 978.823 585.301 944.494 585.589C938.253 585.641 933.997 583.798 929.84 579.15C910.063 557.043 889.948 535.238 869.943 513.334C867.512 510.671 865.025 508.058 862.039 504.859C814.475 524.783 767.332 544.529 720.374 564.198C720.578 568.53 720.696 571.512 720.861 574.491C722.516 604.437 724.057 634.391 725.945 664.322C726.311 670.129 724.737 674.23 720.553 678.353C695.624 702.916 670.88 727.669 646.312 752.592C642.235 756.727 638.256 758.629 632.365 758.225C611.755 756.812 591.115 755.842 570.482 754.774C557.869 754.122 545.249 753.599 531.636 752.972C511.88 800.218 492.164 847.369 472.537 894.309C475.994 897.614 478.345 899.951 480.79 902.186C502.689 922.196 524.513 942.29 546.593 962.098C550.911 965.972 552.883 969.905 552.842 975.806C552.596 1010.8 552.61 1045.8 552.832 1080.8C552.869 1086.6 551.238 1090.69 546.848 1094.63C524.519 1114.66 502.466 1134.99 480.344 1155.25C477.722 1157.65 475.264 1160.23 472.547 1162.91C492.52 1210.56 512.163 1257.43 531.801 1304.28C565.779 1302.43 598.384 1300.81 630.96 1298.74C637.096 1298.35 641.476 1299.48 645.961 1304.05C670.467 1329.04 695.227 1353.78 720.194 1378.3C724.68 1382.71 726.316 1387.04 725.921 1393.22C724.007 1423.15 722.465 1453.1 720.842 1483.05C720.667 1486.28 720.818 1489.52 720.818 1492.59C768.413 1512.48 815.33 1532.09 862.314 1551.73C865.015 1548.87 867.33 1546.5 869.565 1544.05C889.8 1521.91 910.102 1499.82 930.172 1477.53C933.79 1473.51 937.472 1471.67 943.012 1471.71C978.342 1471.95 1013.68 1471.98 1049.01 1471.69C1055 1471.65 1058.75 1473.85 1062.58 1478.12C1082.86 1500.67 1103.43 1522.97 1123.83 1545.41C1125.82 1547.6 1127.38 1550.19 1129.14 1552.6C1177.66 1532.31 1224.56 1512.69 1271.77 1492.95C1271.5 1487.46 1271.3 1482.86 1271.04 1478.25C1269.45 1449.3 1267.87 1420.35 1266.22 1391.41C1265.99 1387.28 1266.5 1383.87 1269.78 1380.63C1296.07 1354.6 1322.2 1328.41 1348.28 1302.17C1351.11 1299.33 1354.02 1298.22 1358.02 1298.46C1385.3 1300.14 1412.58 1301.63 1439.86 1303.16C1446.47 1303.52 1453.08 1303.78 1460.08 1304.1C1479.9 1256.69 1499.52 1209.78 1519.36 1162.32C1516.53 1159.64 1513.95 1157.12 1511.28 1154.68C1489.39 1134.67 1467.57 1114.57 1445.5 1094.76C1441.17 1090.87 1439.35 1086.86 1439.39 1081.01C1439.63 1046.01 1439.62 1011.01 1439.4 976.016C1439.36 970.202 1441.09 966.158 1445.45 962.247C1467.78 942.223 1489.83 921.884 1512.01 901.677C1514.45 899.451 1517.02 897.368 1519.7 895.077C1514.43 882.237 1509.51 870.253 1504.05 856.83Z" fill="#111111"/>
<path d="M798 2302.67C1148.24 2302.67 1497.49 2302.67 1846.73 2302.67C1850.73 2302.67 1854.74 2302.55 1858.72 2302.86C1860.38 2302.99 1861.97 2304.09 1865.73 2305.62C1861.79 2306.71 1860.08 2307.51 1858.33 2307.62C1821.39 2309.99 159.017 2308.32 150.151 2305.58C152.341 2304.35 153.701 2303.01 155.179 2302.86C158.812 2302.51 162.499 2302.67 166.164 2302.67C376.443 2302.67 586.721 2302.67 798 2302.67Z" fill="#111111"/>
<path d="M719.362 2159.79C715.691 2176.83 712.219 2193.07 708.594 2210.04C703.438 2210.04 698.671 2210.04 692.767 2210.04C693.506 2205.77 694.057 2201.93 694.846 2198.14C697.963 2183.15 701.196 2168.18 704.29 2153.19C705.086 2149.33 706.38 2145.07 702.023 2142.41C698.791 2140.43 693.747 2142.61 690.492 2147.91C688.459 2151.22 687.112 2155.13 686.245 2158.95C683.225 2172.26 680.568 2185.65 677.727 2198.99C676.971 2202.54 676.049 2206.06 675.065 2210.16C670.145 2210.16 665.64 2210.16 661.169 2210.16C660.009 2202.75 671.561 2144.27 677.199 2128.94C682.886 2128.38 689.127 2125.48 693.218 2132.78C709.172 2123.67 712.731 2123.96 722.877 2135.57C725.651 2133.53 728.344 2131.18 731.372 2129.4C737.142 2126.02 743.288 2124.86 749.36 2128.57C755.247 2132.16 756.611 2138.13 755.668 2144.3C754.211 2153.83 752.074 2163.25 750.101 2172.7C747.719 2184.1 745.221 2195.48 742.726 2206.85C742.52 2207.8 741.955 2208.66 741.273 2210.2C736.655 2210.2 731.866 2210.2 725.9 2210.2C726.828 2205.3 727.533 2201.13 728.416 2197C731.338 2183.33 734.358 2169.68 737.256 2156C737.805 2153.41 738.288 2150.73 738.241 2148.1C738.135 2142.21 733.79 2139.84 728.785 2143.11C723.17 2146.78 720.347 2152.37 719.362 2159.79Z" fill="#151515"/>
<path d="M635.17 2178.91C637.22 2169.29 639.073 2160.49 640.9 2151.68C641.664 2148 642.401 2144.02 638.009 2142.21C634.04 2140.58 630.492 2142.71 628.509 2145.89C625.926 2150.02 623.519 2154.56 622.368 2159.25C619.194 2172.18 616.736 2185.29 613.945 2198.32C613.119 2202.17 612.13 2206 611.113 2210.26C606 2210.26 601.471 2210.26 596.14 2210.26C596.394 2207.16 596.339 2204.57 596.853 2202.09C600.029 2186.76 603.33 2171.45 606.598 2156.14C606.807 2155.16 607.173 2154.21 607.315 2153.23C607.879 2149.34 609.348 2145.09 605.047 2142.39C601.785 2140.34 596.774 2142.45 593.417 2147.68C591.499 2150.67 590.207 2154.24 589.41 2157.73C586.148 2172.02 583.208 2186.38 580.093 2200.7C579.399 2203.9 578.472 2207.04 577.625 2210.31C572.356 2210.31 567.797 2210.31 561.839 2210.31C567.685 2182.64 573.358 2155.79 579.074 2128.73C585.617 2128.66 591.812 2125.19 595.291 2132.49C600.807 2130.45 606.329 2126.77 611.755 2126.91C616.585 2127.03 621.307 2131.39 627.258 2134.49C628.378 2133.64 630.844 2131.46 633.597 2129.75C639.283 2126.2 645.346 2124.93 651.607 2128.23C657.907 2131.56 659.024 2137.54 658.225 2143.71C657.117 2152.28 655.412 2160.78 653.677 2169.25C651.071 2181.98 648.225 2194.66 645.449 2207.35C645.312 2207.97 644.882 2208.54 644.156 2210C639.821 2210 635.048 2210 628.793 2210C630.906 2199.64 632.935 2189.68 635.17 2178.91Z" fill="#151515"/>
<path d="M728.019 1949.9C719.055 1949.9 711.083 1949.9 701.789 1949.9C699.882 1958.49 698.065 1966.68 695.899 1976.43C709.116 1976.43 720.933 1976.43 734.022 1976.43C732.72 1982.35 731.755 1986.74 730.576 1992.1C717.849 1992.1 705.654 1992.1 692.517 1992.1C690.454 2002.24 688.576 2011.48 686.38 2022.28C705.932 2022.28 723.771 2022.28 743.1 2022.28C741.999 2028.16 741.18 2032.54 740.155 2038.02C714.863 2038.62 690.1 2038.29 663.709 2038.27C671.234 2002.79 678.448 1968.78 685.694 1934.62C711.207 1934.62 735.711 1934.62 761.277 1934.62C760.213 1939.87 759.317 1944.29 758.18 1949.9C748.126 1949.9 738.568 1949.9 728.019 1949.9Z" fill="#151515"/>
<path d="M943.634 2003.38C942.736 2006.38 942.129 2008.64 941.292 2010.81C931.464 2036.32 903.944 2047.68 878.805 2036.63C865.95 2030.98 858.276 2018.88 860.791 2005.33C865.038 1982.44 870.311 1959.75 875.19 1936.98C875.32 1936.37 875.885 1935.86 876.68 1934.65C881.718 1934.65 887.184 1934.65 893.532 1934.65C893.263 1937.65 893.282 1940.2 892.776 1942.64C889.063 1960.56 885.246 1978.46 881.458 1996.37C881.32 1997.02 881.113 1997.66 880.981 1998.31C878.43 2010.85 880.613 2017.6 888.562 2021.79C897.504 2026.5 909.647 2024.32 917.14 2016.83C922.095 2011.87 924.127 2005.61 925.531 1999.03C929.146 1982.11 932.682 1965.17 936.302 1948.25C937.263 1943.76 938.415 1939.31 939.527 1934.64C945.797 1934.64 951.283 1934.64 958.169 1934.64C953.258 1957.9 948.538 1980.25 943.634 2003.38Z" fill="#141414"/>
<path d="M456.685 2188.32C445.979 2210.37 423.358 2215.82 402.636 2210.92C387.419 2207.33 378.888 2196.12 376.528 2181.23C373.646 2163.05 376.146 2145.32 385.857 2129.21C397.733 2109.5 419.694 2100.6 441.727 2106C455.279 2109.33 468.24 2122.1 466.12 2139.85C460.204 2139.85 454.135 2139.85 447.327 2139.85C446.653 2137.77 445.92 2135.31 445.069 2132.9C441.683 2123.31 434.007 2118.86 423.942 2120.73C415.567 2122.28 409.288 2127.07 404.9 2134.13C396.261 2148.02 393.733 2163.29 396.5 2179.24C397.938 2187.53 402.262 2194.36 411.413 2196.03C420.983 2197.77 429.357 2195.35 435.185 2187.07C437.461 2183.84 439.065 2180.14 441.218 2176.21C446.964 2176.21 452.855 2176.21 460.31 2176.21C459.081 2180.5 458.057 2184.07 456.685 2188.32Z" fill="#141414"/>
<path d="M1209.94 2127.58C1214.46 2129.14 1218.44 2130.1 1221.83 2132.06C1232.36 2138.16 1235.89 2147.89 1233.81 2159.36C1230.78 2176.02 1227.04 2192.55 1223.67 2208.81C1211.97 2212.57 1208.79 2211.89 1204.74 2204.71C1196.98 2210.42 1188.37 2213.2 1178.62 2212.31C1167.41 2211.28 1158.3 2204.04 1156.26 2194.11C1153.98 2182.99 1158.37 2171.8 1168.51 2167.1C1174.96 2164.11 1182.38 2162.63 1189.52 2161.87C1197.7 2160.99 1206.04 2161.66 1213.88 2161.66C1218.24 2149.94 1214.11 2142.27 1203.3 2140.16C1191.21 2137.8 1183.27 2141.71 1175 2154.41C1172.38 2154.53 1169.43 2154.79 1166.48 2154.76C1164.55 2154.74 1162.63 2154.3 1160.22 2153.98C1159.84 2144.53 1165.24 2138.79 1171.88 2134.31C1183.18 2126.69 1195.79 2124.75 1209.94 2127.58ZM1185.16 2175.33C1182.56 2176.72 1179.5 2177.62 1177.45 2179.58C1171.85 2184.97 1173.57 2193.84 1180.48 2196.99C1192.83 2202.61 1211.57 2189.62 1211.23 2174.89C1203.1 2174.89 1194.94 2174.89 1185.16 2175.33Z" fill="#141414"/>
<path d="M524.971 2126.63C547.888 2131.55 556.715 2142.83 556.191 2165.39C555.928 2176.71 552.811 2187.08 545.853 2196.06C533.848 2211.56 510.245 2217.31 492.487 2209.12C482.071 2204.32 475.755 2196.18 473.843 2184.85C472.029 2174.09 473.217 2163.59 477.438 2153.53C485.213 2135.01 501.105 2125.88 524.971 2126.63ZM510.724 2142.52C492.683 2148.66 489.213 2171.77 492.75 2184.5C495.014 2192.65 502.112 2197.66 510.69 2197.78C519.736 2197.9 527.327 2194.22 531.497 2186.37C534.685 2180.37 536.903 2173.44 537.727 2166.69C539.815 2149.62 529.615 2138.14 510.724 2142.52Z" fill="#141414"/>
<path d="M1510.88 2203.02C1500.25 2211.31 1488.66 2213.21 1476.32 2212.2C1459.76 2210.85 1447.87 2199.71 1445.5 2183.26C1443.88 2172.07 1445.53 2161.29 1450.42 2151.15C1460.73 2129.75 1487.61 2120.13 1509.19 2129.98C1519.74 2134.8 1526.14 2143.19 1527.55 2154.46C1529.85 2172.87 1526.11 2189.65 1510.88 2203.02ZM1504.18 2146.73C1500.8 2143.08 1496.57 2141.63 1491.67 2141.47C1481.78 2141.16 1474.32 2145.27 1469.09 2153.55C1464.85 2160.25 1463.43 2167.66 1463.51 2175.48C1463.63 2186.64 1468.05 2193.97 1476.55 2196.86C1484.99 2199.73 1495.42 2196.48 1501.74 2189.01C1510.89 2178.17 1512.38 2160.73 1504.18 2146.73Z" fill="#141414"/>
<path d="M1160.09 1976.37C1172.2 1955.4 1195.78 1950.97 1212.43 1955.77C1226.59 1959.84 1235.41 1970.81 1236.3 1985.58C1236.95 1996.37 1235.81 2006.83 1230.69 2016.63C1220.08 2036.98 1194.18 2046.26 1173.21 2036.94C1161.58 2031.77 1155.01 2022.61 1153.87 2009.95C1152.84 1998.5 1153.95 1987.31 1160.09 1976.37ZM1186.01 1972.55C1173.29 1981.57 1170.51 1994.59 1172.32 2008.85C1173.85 2020.94 1184.67 2027.62 1196.55 2024.91C1202.67 2023.51 1207.66 2020.38 1211.23 2015.25C1217.88 2005.7 1219.63 1994.95 1217.49 1983.77C1215.53 1973.57 1207.27 1967.95 1196.89 1969.18C1193.65 1969.57 1190.52 1970.91 1186.01 1972.55Z" fill="#141414"/>
<path d="M1558.52 2196.66C1557.37 2201.63 1556.39 2205.78 1555.33 2210.26C1549.47 2210.26 1544.29 2210.26 1537.75 2210.26C1543.54 2182.83 1549.14 2156.26 1554.93 2128.76C1560.12 2128.51 1564.93 2128.27 1570.23 2128.01C1571.21 2130.8 1572.03 2133.11 1573.08 2136.1C1576 2134.32 1578.45 2132.71 1581 2131.32C1588.85 2127.05 1597.1 2125.1 1606.01 2127.19C1619.01 2130.24 1627.06 2140.58 1624.85 2153.61C1621.68 2172.28 1617.36 2190.75 1613.38 2210.01C1607.44 2210.01 1602.08 2210.01 1595.67 2210.01C1596.7 2204.38 1597.49 2199.53 1598.5 2194.73C1600.83 2183.65 1603.45 2172.64 1605.59 2161.53C1606.78 2155.31 1608 2148.56 1601.64 2144.18C1595.41 2139.88 1588.69 2141.38 1582.72 2144.79C1573.45 2150.07 1566.59 2157.46 1564.47 2168.49C1562.72 2177.65 1560.63 2186.73 1558.52 2196.66Z" fill="#151515"/>
<path d="M943.36 2161.59C939.725 2178.23 936.284 2194.07 932.803 2210.1C926.77 2210.1 921.672 2210.1 915.708 2210.1C916.221 2206.35 916.447 2203.44 917.038 2200.6C919.751 2187.58 922.66 2174.6 925.304 2161.57C926.576 2155.3 927.727 2148.62 921.466 2144.22C915.305 2139.9 908.57 2141.27 902.574 2144.69C892.989 2150.15 886.121 2157.8 883.979 2169.25C881.478 2182.62 878.343 2195.88 875.314 2209.97C869.58 2209.97 864.211 2209.97 857.499 2209.97C863.252 2182.71 868.856 2156.16 874.646 2128.72C879.851 2128.48 884.688 2128.26 889.966 2128.02C890.987 2130.76 891.843 2133.05 892.93 2135.97C895.9 2134.19 898.236 2132.1 900.953 2131.29C907.548 2129.34 914.351 2126.55 921.016 2126.69C936.726 2127.02 945.758 2138.18 944.52 2153.87C944.337 2156.18 943.882 2158.48 943.36 2161.59Z" fill="#141414"/>
<path d="M842.92 2169.11C839.88 2183.21 837.057 2196.49 834.138 2210.23C828.584 2210.23 823.753 2210.23 818.52 2210.23C818.045 2207.79 817.617 2205.58 817.089 2202.87C815.862 2203.3 814.5 2203.44 813.594 2204.15C805.333 2210.66 796.018 2213.3 785.579 2212.2C772.921 2210.87 764.408 2201.67 764.096 2188.9C764.072 2187.91 763.961 2186.88 764.156 2185.92C767.983 2167.06 771.85 2148.21 775.815 2128.84C781.78 2128.84 786.911 2128.84 793.347 2128.84C792.686 2133 792.231 2136.8 791.464 2140.53C788.787 2153.56 785.812 2166.53 783.31 2179.58C780.645 2193.49 789.31 2200.95 802.584 2195.87C813.696 2191.62 821.571 2183.82 824.254 2171.74C826.848 2160.05 829.312 2148.34 831.896 2136.65C832.46 2134.1 833.291 2131.61 834.103 2128.72C839.641 2128.72 844.779 2128.72 851.269 2128.72C848.444 2142.47 845.79 2155.38 842.92 2169.11Z" fill="#141414"/>
<path d="M982.963 1989.82C979.297 2006.12 975.919 2021.7 972.448 2037.7C966.545 2037.7 961.402 2037.7 954.693 2037.7C960.444 2010.39 966.032 1983.85 971.75 1956.7C977.172 1956.7 981.988 1956.7 987.357 1956.7C987.824 1959.06 988.308 1961.51 988.849 1964.25C989.997 1963.84 991.055 1963.73 991.746 1963.17C999.861 1956.58 1009 1953.2 1019.53 1954.22C1033.62 1955.58 1043.65 1965.92 1041.67 1979.83C1038.92 1999.18 1034.22 2018.26 1030.29 2037.73C1024 2037.73 1018.84 2037.73 1012.5 2037.73C1014.03 2029.89 1015.35 2022.82 1016.8 2015.77C1018.8 2005.98 1021.11 1996.25 1022.9 1986.43C1025.12 1974.28 1018.44 1967.29 1006.47 1970.2C1000.99 1971.54 995.844 1975.38 991.261 1978.99C987.976 1981.58 985.878 1985.67 982.963 1989.82Z" fill="#151515"/>
<path d="M1290.73 1958.21C1298.49 1954.33 1305.98 1953.16 1313.74 1954.61C1326.56 1957 1335.49 1967.74 1333.42 1980.5C1330.33 1999.5 1325.81 2018.26 1321.79 2037.63C1315.87 2037.63 1310.72 2037.63 1304.76 2037.63C1304.94 2035.06 1304.86 2032.85 1305.29 2030.74C1307.83 2018.35 1310.5 2005.99 1313.08 1993.61C1313.63 1991 1314.17 1988.38 1314.46 1985.74C1315.84 1973.36 1309.22 1967 1297.19 1970.23C1285.17 1973.46 1276.89 1981.55 1273.71 1993.76C1270.77 2005.02 1268.71 2016.51 1266.2 2027.88C1265.49 2031.08 1264.56 2034.23 1263.66 2037.71C1257.95 2037.71 1252.79 2037.71 1246.25 2037.71C1252.02 2010.31 1257.62 1983.79 1263.33 1956.69C1268.87 1956.69 1273.69 1956.69 1279.12 1956.69C1279.58 1959.01 1280.06 1961.46 1280.68 1964.65C1284.07 1962.45 1287.07 1960.5 1290.73 1958.21Z" fill="#151515"/>
<path d="M1117.45 2184.61C1123.24 2183.13 1128.6 2182.29 1134.67 2181.34C1135.08 2189.37 1131.37 2194.11 1127.67 2198.57C1115.26 2213.54 1089.22 2217.28 1072.87 2206.66C1066.51 2202.53 1061.63 2196.96 1059.6 2189.69C1054.52 2171.48 1057.02 2154.34 1070.22 2140.32C1083 2126.74 1099.37 2123.43 1117.07 2128.33C1129.22 2131.69 1137.38 2139.49 1139.04 2152.69C1139.2 2153.91 1138.74 2155.21 1138.47 2157.1C1133.04 2157.1 1127.87 2157.1 1122.68 2157.1C1122.05 2156.19 1121.34 2155.45 1120.93 2154.56C1114.47 2140.72 1099.3 2137.21 1087.38 2146.85C1077.16 2155.1 1072.5 2174.1 1077.72 2186.21C1083.21 2198.95 1100.62 2202.15 1111.46 2192.27C1113.63 2190.29 1115.17 2187.61 1117.45 2184.61Z" fill="#151515"/>
<path d="M1306.6 2128C1312.43 2128.06 1317.38 2128.06 1323.83 2128.06C1322.97 2133.23 1322.3 2137.24 1321.47 2142.23C1315.84 2142.47 1310.64 2142.95 1305.45 2142.84C1299.98 2142.72 1296.85 2144.46 1295.79 2150.34C1293.79 2161.47 1290.94 2172.45 1288.81 2183.56C1287.02 2192.85 1289.5 2195.79 1299.01 2196.05C1306.59 2196.26 1314.19 2196.1 1323.18 2196.1C1322.18 2201.43 1321.41 2205.48 1320.45 2210.57C1307.8 2210.91 1295.55 2211.93 1283.43 2209.74C1275.24 2208.26 1270.12 2201.95 1270.17 2193.28C1270.2 2186.7 1271.59 2180.1 1272.79 2173.58C1274.52 2164.14 1276.62 2154.76 1278.82 2144.13C1272.8 2143.33 1267.75 2142.67 1261.65 2141.87C1262.57 2137.26 1263.38 2133.2 1264.26 2128.75C1270.44 2128.32 1275.99 2127.93 1281.3 2127.55C1283.53 2122.24 1284.44 2116.28 1287.89 2112.94C1291.64 2109.3 1297.75 2108.1 1304.64 2105.03C1303.65 2111.4 1302.87 2115.85 1302.29 2120.32C1301.88 2123.48 1300.47 2127.25 1306.6 2128Z" fill="#141414"/>
<path d="M1016.13 2196.13C1021.64 2196.13 1026.23 2196.13 1032.21 2196.13C1031.05 2201.59 1030.18 2205.64 1029.21 2210.22C1004.48 2210.22 980.322 2210.22 954.874 2210.22C955.773 2205.57 956.554 2201.53 957.547 2196.4C967.193 2196.4 976.351 2196.4 986.48 2196.4C990.194 2178.68 993.703 2161.94 997.443 2144.09C991.069 2143.33 986.247 2142.75 979.995 2142.01C980.802 2137.7 981.555 2133.69 982.467 2128.82C994.322 2127.48 1005.74 2128.21 1018.7 2128.36C1014.03 2151.27 1009.62 2172.9 1005.04 2195.37C1009.38 2195.69 1012.3 2195.91 1016.13 2196.13Z" fill="#141414"/>
<path d="M1400.8 2161C1398.34 2172.79 1396.08 2183.76 1393.5 2196.3C1403.14 2196.3 1411.3 2196.3 1420.62 2196.3C1419.55 2201.88 1418.77 2205.94 1417.97 2210.13C1392.98 2210.13 1368.87 2210.13 1343.6 2210.13C1344.65 2205.13 1345.51 2201.08 1346.52 2196.3C1356.05 2196.3 1364.96 2196.3 1375.12 2196.3C1378.85 2178.95 1382.45 2162.19 1386.31 2144.21C1380.2 2143.37 1374.87 2142.63 1368.61 2141.77C1369.68 2137.11 1370.61 2133.08 1371.63 2128.67C1383.54 2128.67 1394.71 2128.67 1407.41 2128.67C1405.18 2139.64 1403.09 2149.91 1400.8 2161Z" fill="#141414"/>
<path d="M1112.38 2023.92C1118.18 2023.92 1123.08 2023.92 1129.31 2023.92C1128.17 2029.35 1127.33 2033.38 1126.42 2037.73C1101.54 2037.73 1077.41 2037.73 1052.02 2037.73C1053.04 2032.91 1053.88 2028.91 1054.94 2023.89C1064.66 2023.89 1073.86 2023.89 1083.69 2023.89C1087.45 2006.1 1090.99 1989.31 1094.75 1971.52C1088.59 1970.71 1083.54 1970.05 1077.49 1969.26C1078.4 1964.68 1079.21 1960.66 1080.04 1956.51C1092.12 1956.51 1103.31 1956.51 1115.91 1956.51C1111.25 1978.93 1106.76 2000.55 1102.07 2023.11C1105.79 2023.43 1108.64 2023.68 1112.38 2023.92Z" fill="#141414"/>
<path d="M508.238 2432.82C518.755 2430.87 518.849 2430.78 519.504 2421C516.6 2421.89 513.979 2422.93 511.26 2423.49C504.4 2424.91 497.596 2422.08 494.047 2416.08C489.803 2408.91 489.797 2401.43 493.963 2394.23C497.341 2388.4 504.767 2384.97 511.151 2386.81C516.191 2388.26 520.973 2389.79 527.068 2386.75C527.397 2390.75 527.819 2393.58 527.828 2396.41C527.858 2405.73 528.211 2415.09 527.546 2424.38C526.863 2433.91 520.916 2438.77 510.789 2439.46C500.886 2440.14 495.441 2436.69 492.928 2428.08C495.352 2425.77 497.453 2426.58 499.872 2428.4C502.174 2430.13 504.879 2431.32 508.238 2432.82ZM510.745 2392.36C499.384 2394.57 494.651 2404.43 500.751 2413.19C503.51 2417.16 507.356 2418.62 511.968 2417.59C516.149 2416.65 518.918 2414 519.953 2409.72C521.827 2401.97 519.725 2397.28 510.745 2392.36Z" fill="#1B1B1B"/>
<path d="M233.531 2406.8C232.437 2400.15 231.474 2394.35 230.53 2388.66C235.759 2386.21 237.36 2388.38 237.991 2392.37C238.853 2397.83 239.826 2403.26 241.104 2410.78C245.06 2405.64 245.145 2401.37 246.121 2397.47C246.684 2395.21 246.879 2392.76 247.941 2390.77C248.713 2389.33 250.693 2387.56 252.027 2387.64C253.429 2387.73 255.305 2389.62 255.907 2391.14C257.116 2394.19 257.465 2397.58 258.427 2400.75C259.132 2403.07 260.248 2405.27 261.181 2407.52C261.874 2407.49 262.566 2407.45 263.258 2407.41C264.151 2402.37 265.089 2397.33 265.919 2392.27C266.472 2388.91 267.516 2386.4 273.008 2388.58C271.224 2399.64 269.517 2410.98 267.417 2422.25C267.154 2423.67 264.796 2425.68 263.436 2425.66C261.545 2425.63 258.975 2424.4 257.976 2422.85C256.605 2420.73 256.505 2417.81 255.733 2415.28C254.816 2412.27 253.764 2409.3 252.771 2406.32C252.09 2406.31 251.409 2406.31 250.728 2406.3C249.387 2410.86 247.915 2415.38 246.749 2419.97C245.867 2423.46 244.823 2426.33 240.342 2425.92C236.163 2425.53 236.169 2422.3 235.647 2419.42C234.94 2415.5 234.319 2411.57 233.531 2406.8Z" fill="#1B1B1B"/>
<path d="M1386.91 2426.62C1382.46 2425.68 1377.97 2425.62 1375.15 2423.42C1368.53 2418.27 1371.29 2407.19 1379.89 2404.43C1385.15 2402.74 1390.89 2402.52 1396.68 2401.6C1398.07 2397.05 1395.77 2394.44 1392.15 2393.05C1387.48 2391.25 1382.87 2391.87 1379.34 2395.73C1377.08 2398.21 1375.36 2401.33 1371.36 2398.56C1373.59 2389.88 1379.08 2386.02 1388.69 2386.3C1397.46 2386.56 1403.9 2390.75 1404.61 2398.35C1405.44 2407.12 1404.8 2416.03 1404.8 2425.87C1398.38 2424.43 1392.81 2423.52 1386.91 2426.62ZM1387.75 2408.31C1386.16 2408.73 1384.46 2408.92 1382.99 2409.62C1380 2411.04 1377.84 2413.68 1379.58 2416.74C1380.62 2418.57 1383.67 2420.04 1385.94 2420.23C1392.52 2420.78 1396.08 2417.06 1396.98 2408.99C1394.44 2408.74 1391.89 2408.49 1387.75 2408.31Z" fill="#1B1B1B"/>
<path d="M1017.77 2424.59C1013.31 2421.72 1010.62 2418.59 1011.02 2413.61C1014.33 2410.96 1016.05 2412.65 1018.22 2415.43C1022.27 2420.61 1027.37 2422.16 1032 2419.86C1033.5 2419.11 1034.96 2417.19 1035.3 2415.56C1035.53 2414.49 1033.98 2412.33 1032.75 2411.82C1029.08 2410.32 1025.17 2409.43 1021.37 2408.24C1013.71 2405.85 1010.51 2402.22 1011.18 2396.76C1011.81 2391.59 1016.42 2387.7 1023.24 2386.57C1032.99 2384.96 1039.84 2389.15 1041.59 2397.84C1038.66 2400.18 1036.82 2398.41 1035.01 2396.16C1031.93 2392.3 1027.8 2391.36 1023.38 2392.93C1021.79 2393.49 1019.85 2395.47 1019.69 2396.97C1019.55 2398.37 1021.25 2400.74 1022.69 2401.35C1026.03 2402.75 1029.74 2403.25 1033.24 2404.28C1040.6 2406.47 1044.01 2410.32 1043.61 2415.8C1043.2 2421.53 1038.56 2425.94 1031.11 2426.44C1026.93 2426.72 1022.65 2425.49 1017.77 2424.59Z" fill="#1B1B1B"/>
<path d="M1708.57 2424.92C1703 2425.57 1697.93 2426.74 1693.21 2425.94C1686.9 2424.86 1682.54 2420.86 1682.48 2413.76C1686.1 2410.85 1687.74 2412.9 1689.83 2415.6C1693.71 2420.61 1698.96 2422.12 1703.67 2419.91C1705.03 2419.27 1706.89 2417.69 1706.85 2416.59C1706.79 2414.93 1705.68 2412.61 1704.3 2411.84C1701.76 2410.41 1698.67 2409.99 1695.86 2408.99C1692.74 2407.89 1689.39 2407.07 1686.67 2405.31C1682.21 2402.43 1681.2 2397.38 1683.94 2393.06C1687.84 2386.91 1694.05 2385.87 1700.63 2386.49C1708.28 2387.22 1711.35 2390.1 1713.39 2397.7C1710.68 2400.21 1708.6 2398.87 1706.8 2396.51C1703.52 2392.18 1699.13 2391.29 1694.35 2392.98C1692.79 2393.54 1690.9 2395.67 1690.82 2397.18C1690.74 2398.58 1692.58 2400.82 1694.09 2401.43C1697.45 2402.78 1701.16 2403.23 1704.67 2404.25C1716.62 2407.75 1718.39 2415.73 1708.57 2424.92Z" fill="#1B1B1B"/>
<path d="M1195.82 2392.14C1197.8 2397.35 1200.23 2401.95 1200.53 2406.68C1201.15 2416.5 1196.06 2423.5 1187.97 2425.93C1179.8 2428.38 1170.74 2425.89 1166.2 2419.94C1160.87 2412.98 1160.77 2400.69 1165.99 2393.66C1170.64 2387.38 1179.31 2384.68 1187.52 2387.36C1190.28 2388.27 1192.71 2390.16 1195.82 2392.14ZM1169.79 2407.03C1169.98 2408.68 1169.87 2410.43 1170.4 2411.96C1172.8 2418.93 1178.57 2421.94 1185.29 2419.92C1191.81 2417.96 1195.32 2409.43 1192.82 2401.62C1190.62 2394.73 1184.41 2390.96 1178.22 2393.23C1175.88 2394.09 1173.48 2395.88 1172.1 2397.91C1170.7 2399.97 1170.52 2402.86 1169.79 2407.03Z" fill="#191919"/>
<path d="M1118.14 2388.45C1122.08 2396.38 1125.49 2403.87 1129.22 2412.07C1133.78 2408.72 1134.07 2403.77 1136.08 2399.89C1137.6 2396.95 1138.71 2393.8 1140.1 2390.79C1141.64 2387.47 1144.05 2386.58 1148.12 2388.82C1147.01 2391.75 1145.98 2394.8 1144.74 2397.75C1140.25 2408.45 1135.88 2419.21 1131.08 2429.77C1127.54 2437.55 1121.51 2440.77 1114.48 2439.33C1113.61 2439.15 1112.58 2438.55 1112.11 2437.83C1111.65 2437.13 1111.8 2436.02 1111.63 2434.62C1112.94 2434.19 1114.1 2433.73 1115.3 2433.43C1124.87 2431 1127.18 2426.72 1123.48 2417.63C1119.63 2408.17 1115.57 2398.79 1111.17 2388.33C1114.11 2388.19 1115.86 2388.11 1118.14 2388.45Z" fill="#191919"/>
<path d="M622.794 2388.58C625.607 2391.56 627.75 2394.18 629.898 2396.82C625.623 2400.53 623.57 2398.66 621.583 2396.03C618.845 2392.41 614.943 2391.46 610.905 2392.67C609.03 2393.23 606.617 2395.32 606.376 2396.99C606.172 2398.4 608.433 2400.96 610.162 2401.69C613.481 2403.1 617.248 2403.4 620.735 2404.47C627.63 2406.58 630.355 2409.92 630.136 2415.56C629.913 2421.31 626.108 2425.03 619.072 2426.37C607.296 2428.63 599.613 2423.88 598.07 2413.25C601.524 2410.85 603.288 2412.84 604.977 2415.74C607.714 2420.44 612.176 2421.57 617.023 2420.3C618.896 2419.81 621.42 2417.79 621.647 2416.19C621.866 2414.65 619.873 2411.95 618.192 2411.15C614.943 2409.62 611.192 2409.18 607.716 2408.07C600.487 2405.76 597.615 2402.51 597.956 2397.29C598.305 2391.96 602.605 2387.48 609.469 2386.82C613.603 2386.42 617.9 2387.7 622.794 2388.58Z" fill="#1B1B1B"/>
<path d="M939.687 2395C940.843 2399.23 942.136 2402.75 942.254 2406.3C942.604 2416.8 937.709 2423.86 929.114 2426.13C919.835 2428.57 910.614 2425.18 906.48 2417.8C902.018 2409.84 903.365 2397.74 909.387 2391.7C915.553 2385.51 926.483 2384.44 934.31 2389.5C936.212 2390.73 937.641 2392.69 939.687 2395ZM934.451 2411.4C934.237 2407.51 934.89 2403.31 933.632 2399.78C930.923 2392.21 921.364 2390.18 915.603 2395.58C910.587 2400.28 910.975 2406.36 912.351 2412.29C913.416 2416.88 916.662 2419.68 921.484 2420.22C927.443 2420.89 931.882 2418.82 934.451 2411.4Z" fill="#1B1B1B"/>
<path d="M755.522 2387.78C756.791 2390.87 757.641 2393.67 757.811 2396.51C758.087 2401.14 757.899 2405.79 757.947 2410.44C757.99 2414.71 759.085 2418.53 763.743 2419.75C768.461 2420.99 772.577 2419.22 774.822 2415.11C776.49 2412.06 777.369 2408.34 777.679 2404.84C778.143 2399.59 777.8 2394.28 777.8 2389.29C781.401 2386.79 783.923 2386.55 785.193 2390.72C786.289 2394.32 785.142 2420.35 783.595 2425.78C778.287 2424.02 773.179 2424.54 767.598 2426.24C758.996 2428.86 751.542 2423.36 750.574 2414.26C749.771 2406.71 750.276 2399.02 750.264 2391.39C750.259 2388.42 752.032 2387.34 755.522 2387.78Z" fill="#1E1E1E"/>
<path d="M670.444 2387.06C682.937 2392.89 687.294 2403.32 682.839 2415.16C678.126 2427.69 659.474 2431.13 650.561 2420.99C644.689 2414.3 644.539 2406.28 647.016 2398.38C649.477 2390.54 655.791 2387 663.75 2386.39C665.706 2386.24 667.708 2386.67 670.444 2387.06ZM674.782 2415.17C675.143 2410.33 676.23 2405.4 675.657 2400.68C675.096 2396.05 671.082 2392.83 666.565 2392.97C663.018 2393.09 658.792 2394.77 656.213 2397.19C651.91 2401.23 652.466 2412.15 656.237 2416.65C660.284 2421.47 666.418 2421.43 674.782 2415.17Z" fill="#1B1B1B"/>
<path d="M1663.51 2420.59C1662.06 2422.87 1659.5 2425.67 1659.4 2425.58C1654.9 2421.76 1650.99 2425.14 1646.82 2426.22C1637.9 2428.54 1630.09 2424.12 1628.92 2415.18C1627.89 2407.32 1628.23 2399.22 1628.52 2391.25C1628.67 2387.01 1631.69 2386.94 1635.97 2388.92C1635.97 2395.16 1635.87 2401.75 1636 2408.33C1636.16 2416.56 1638.36 2419.74 1643.76 2420.05C1649.52 2420.38 1655.06 2415.65 1655.63 2408.87C1656.18 2402.28 1655.75 2395.61 1655.75 2389C1660.92 2386.51 1663.44 2387.61 1663.5 2392.77C1663.6 2401.76 1663.54 2410.76 1663.51 2420.59Z" fill="#1E1E1E"/>
<path d="M1422.31 2398.68C1422.34 2395.79 1422.31 2393.79 1422.43 2391.81C1422.66 2387.73 1425.83 2385.8 1428.32 2388.15C1431.58 2391.23 1433.35 2389.23 1435.97 2388.17C1447.24 2383.6 1456.34 2388.75 1457.4 2400.65C1457.99 2407.24 1457.78 2413.94 1457.39 2420.55C1457.29 2422.31 1455.44 2425.14 1454 2425.42C1450.2 2426.15 1450.1 2422.78 1450.04 2420.13C1449.9 2415.15 1450.04 2410.17 1449.92 2405.19C1449.72 2397.17 1447.47 2393.77 1442.25 2393.33C1436.56 2392.86 1431 2397.63 1430.26 2404.33C1429.72 2409.25 1430.12 2414.28 1429.93 2419.25C1429.86 2421.18 1429.34 2423.08 1429.05 2424.85C1424.17 2426.79 1422.47 2424.63 1422.41 2420.49C1422.3 2413.52 1422.33 2406.55 1422.31 2398.68Z" fill="#1E1E1E"/>
<path d="M446.106 2425.41C442.195 2425.85 441.216 2423.88 441.202 2421.3C441.141 2410.4 441.176 2399.49 441.176 2386.89C444.883 2388.1 447.325 2388.9 450.922 2390.08C451.103 2389.98 452.497 2389.1 453.996 2388.46C466.167 2383.33 475.35 2389.01 475.91 2402.13C476.151 2407.76 476.07 2413.42 475.911 2419.06C475.833 2421.84 476.613 2425.81 471.979 2425.51C467.595 2425.23 468.568 2421.33 468.461 2418.55C468.27 2413.58 468.383 2408.6 468.358 2403.62C468.334 2399.07 467.625 2394.9 462.337 2393.48C457.73 2392.25 452.471 2394.71 450.197 2399.92C448.926 2402.84 448.759 2406.29 448.377 2409.53C447.764 2414.72 447.385 2419.94 446.106 2425.41Z" fill="#191919"/>
<path d="M1250.06 2398.57C1250.06 2408 1250.06 2416.53 1250.06 2426.44C1242.98 2423.57 1237.77 2424.68 1232.17 2426.23C1223.78 2428.55 1216.63 2423.31 1215.77 2414.69C1215 2407.11 1215.38 2399.4 1215.37 2391.75C1215.36 2388.27 1217.24 2387.01 1221.88 2388.29C1222.04 2391.34 1222.27 2394.82 1222.37 2398.3C1222.49 2402.62 1222.32 2406.96 1222.61 2411.27C1222.86 2415.09 1224.21 2418.57 1228.34 2419.77C1232.6 2421 1236.65 2419.88 1238.95 2416.22C1240.8 2413.29 1241.92 2409.63 1242.37 2406.16C1242.97 2401.57 1242.53 2396.86 1242.64 2392.2C1242.74 2388.24 1244.75 2386.85 1249.65 2388.46C1249.78 2391.26 1249.92 2394.46 1250.06 2398.57Z" fill="#191919"/>
<path d="M1351.32 2412.62C1356.12 2414.06 1354.33 2416.72 1353.01 2418.9C1347.61 2427.77 1333.14 2429.59 1324.7 2422.57C1317.47 2416.56 1315.73 2403.56 1321.02 2395.07C1325.97 2387.13 1336.76 2384.05 1345.76 2388.09C1350.57 2390.25 1353.99 2393.47 1354.14 2399.05C1349.76 2402.18 1348.11 2399.12 1345.72 2396.66C1341.16 2391.99 1335.16 2391.7 1330.42 2395.32C1325.57 2399.01 1324.11 2408.72 1327.52 2414.62C1330.29 2419.42 1336.21 2421.94 1341.27 2419.56C1344.73 2417.94 1347.56 2414.99 1351.32 2412.62Z" fill="#1B1B1B"/>
<path d="M991.392 2424.36C986.943 2426.61 985.347 2424.71 985.264 2420.95C985.147 2415.64 985.264 2410.32 985.085 2405.02C984.813 2396.93 982.529 2393.54 977.35 2393.11C971.649 2392.64 966.221 2397.33 965.467 2404.2C964.853 2409.78 965.208 2415.47 964.97 2421.1C964.811 2424.88 963.045 2426.64 958.477 2424.73C958.477 2412.88 958.477 2400.77 958.477 2387.86C964.448 2389.52 969.416 2389.19 974.852 2387.24C983.559 2384.12 991.496 2390.16 992.068 2399.78C992.539 2407.7 991.95 2415.68 991.392 2424.36Z" fill="#161616"/>
<path d="M810.91 2385.22C812.888 2382.09 814.438 2379.56 817.087 2375.23C818.84 2380.15 819.777 2382.78 820.813 2385.69C824.18 2386.72 827.703 2387.79 831.536 2388.96C829.494 2395.44 824.051 2392.36 819.668 2396.02C819.668 2401.1 819.524 2407.6 819.72 2414.09C819.843 2418.18 822.649 2419.48 826.405 2419.91C830.014 2420.33 834.417 2418.37 837.663 2423.44C831.476 2427.86 824.983 2426.56 818.936 2425.17C813.794 2424 811.971 2419.43 811.917 2414.37C811.849 2408.1 811.9 2401.84 811.9 2395.61C808.383 2394.01 805.572 2392.74 800.625 2390.5C805.126 2388.36 807.804 2387.09 810.91 2385.22Z" fill="#1E1E1E"/>
<path d="M1745 2422.92C1743.53 2418.52 1742.2 2414.76 1741.88 2410.92C1741.44 2405.69 1741.77 2400.38 1741.77 2395.55C1738.02 2393.85 1735.24 2392.58 1732.45 2391.31C1739.94 2388.82 1741.54 2381.12 1747.32 2376.47C1748.59 2380.24 1749.49 2382.93 1750.57 2386.13C1753.56 2386.76 1756.72 2387.41 1760.45 2388.19C1760.5 2395.88 1753.11 2391.9 1749.14 2394.84C1749.14 2400.39 1748.91 2405.95 1749.19 2411.48C1749.55 2418.4 1750.68 2419.35 1757.51 2419.95C1763.46 2420.47 1763.46 2420.47 1767.84 2424.39C1759.64 2426.76 1752.64 2427.5 1745 2422.92Z" fill="#191919"/>
<path d="M1549.17 2393.43C1547.7 2393.56 1546.91 2393.41 1546.4 2393.73C1538.1 2398.82 1543.28 2406.76 1542.56 2413.37C1542.01 2418.4 1546.07 2419.73 1550.58 2420.03C1553.82 2420.24 1558.02 2418.49 1559.91 2423.18C1546.96 2431.1 1535.43 2425.53 1534.92 2411.27C1534.73 2406.01 1534.89 2400.73 1534.89 2396.06C1531.2 2393.94 1528.57 2392.43 1524.76 2390.23C1528.76 2387.93 1532.13 2386.95 1533.93 2384.71C1535.87 2382.3 1535.97 2378.35 1540.89 2378.26C1541.69 2380.7 1542.48 2383.08 1543.41 2385.92C1546.68 2386.7 1550.08 2387.51 1555.73 2388.86C1552.83 2391.13 1551.4 2392.25 1549.17 2393.43Z" fill="#191919"/>
<path d="M701.623 2420.37C705.313 2419.91 708.235 2419.63 711.983 2419.28C713.656 2407.47 712.895 2395.92 712.459 2384.42C712.406 2383.02 710.317 2381.51 708.893 2380.41C707.507 2379.34 705.763 2378.73 703.526 2377.59C708.638 2372.12 713.753 2374.57 720.07 2374.93C720.122 2382.45 720.191 2389.64 720.216 2396.83C720.24 2404.07 720.221 2411.31 720.221 2417.24C724.682 2422.05 731.467 2417.36 734.291 2424.28C732.419 2424.95 731.019 2425.86 729.604 2425.88C720.964 2426.03 712.318 2426.09 703.679 2425.93C700.042 2425.86 697.289 2424.71 701.623 2420.37Z" fill="#191919"/>
<path d="M1610.43 2392.17C1611.2 2393.77 1611.97 2394.78 1611.81 2395.63C1611.34 2398.3 1611.24 2402.56 1609.7 2403.22C1605.41 2405.08 1605.69 2400.57 1604.54 2398.04C1602.41 2393.34 1598.68 2391.92 1594 2394.08C1589.01 2396.37 1586.44 2400.43 1586.36 2405.96C1586.28 2410.96 1586.3 2415.96 1586.18 2420.95C1586.12 2423.37 1585.67 2426.12 1582.47 2425.44C1581.13 2425.16 1579.28 2422.87 1579.25 2421.45C1578.98 2410.51 1579.1 2399.57 1579.1 2386.89C1582.83 2388.13 1585.29 2388.94 1588.67 2390.06C1595.17 2385.99 1602.81 2383.73 1610.43 2392.17Z" fill="#191919"/>
<path d="M877.488 2426.09C870.922 2426.06 865.256 2426.22 859.615 2425.91C857.801 2425.81 856.055 2424.47 854.277 2423.7C854.345 2422.88 854.414 2422.06 854.482 2421.24C858.473 2420.55 862.463 2419.85 867.312 2419.01C867.312 2411.34 867.312 2403.53 867.312 2394.95C866.361 2392.01 858.544 2395.51 860.186 2388.02C864.809 2388.02 869.541 2388.02 875.668 2388.02C875.668 2398.42 875.668 2408.53 875.668 2418.65C879.701 2422.38 887.77 2416.35 888.389 2426.09C884.785 2426.09 881.592 2426.09 877.488 2426.09Z" fill="#1B1B1B"/>
<path d="M306.248 2388.49C307.369 2398.87 307.849 2408.74 308.294 2417.9C311.978 2421.48 317.733 2418.12 320.237 2422.99C313.1 2427.35 292.762 2427.27 284.873 2422.05C290.318 2420.78 294.457 2419.82 299.086 2418.74C299.359 2417.33 299.905 2415.76 299.931 2414.17C300.033 2407.88 299.973 2401.59 299.973 2396.55C297.478 2392.31 291.194 2395.17 291.554 2388.81C295.95 2386.12 300.792 2387.17 306.248 2388.49Z" fill="#1B1B1B"/>
<path d="M407.909 2426.02C401.382 2425.28 395.273 2427.76 389.79 2423.65C392.668 2417.5 398.779 2421.87 402.932 2418.15C402.932 2411.11 402.932 2403.28 402.932 2395.14C400.161 2393.88 397.349 2392.59 393.8 2390.97C398.849 2385.44 404.046 2388.12 410.047 2388.02C410.506 2398.5 410.947 2408.57 411.387 2418.62C416.074 2419.79 419.906 2420.75 424.95 2422.01C419.335 2428.11 413.708 2425.17 407.909 2426.02Z" fill="#161616"/>
<path d="M346.442 2410.54C346.353 2415.07 346.637 2418.78 346 2422.32C345.741 2423.76 343.477 2424.84 341.184 2426.95C340.41 2423.55 339.759 2421.99 339.745 2420.42C339.654 2409.86 339.698 2399.31 339.698 2386.97C343.312 2388.32 345.685 2389.2 348.579 2390.28C350.529 2389.4 353.123 2387.81 355.939 2387.04C365.467 2384.4 373.926 2391.65 372.378 2400.96C372.235 2401.83 371.624 2402.86 370.912 2403.31C370.172 2403.77 369.046 2403.62 367.375 2403.83C366.791 2402.48 366.159 2401.1 365.6 2399.7C362.686 2392.38 356.866 2390.93 350.998 2396.05C346.8 2399.7 346.214 2404.53 346.442 2410.54Z" fill="#161616"/>
<path d="M1395.48 2115.14C1390.46 2104.29 1394.85 2096.48 1405.16 2096.49C1408.05 2096.49 1410.94 2096.82 1415.18 2097.08C1413.97 2103.35 1412.88 2108.91 1411.64 2115.31C1405.99 2115.31 1401.13 2115.31 1395.48 2115.14Z" fill="#1B1B1B"/>
<path d="M1011.12 2096.6C1016.18 2096.52 1020.41 2096.52 1026.26 2096.52C1025.25 2102.41 1024.73 2107.15 1023.49 2111.7C1023.09 2113.16 1020.88 2114.99 1019.36 2115.13C1014.54 2115.57 1009.65 2115.29 1003.99 2115.29C1005.24 2107.79 1003.12 2100.77 1011.12 2096.6Z" fill="#1B1B1B"/>
<path d="M1104.57 1926.05C1110.82 1924.96 1116.59 1924.53 1124.09 1923.97C1122.59 1931.05 1121.46 1936.36 1120.21 1942.25C1113.82 1942.25 1108.05 1942.25 1100.82 1942.25C1101.99 1936.69 1103.05 1931.7 1104.57 1926.05Z" fill="#191919"/>
<path d="M305.179 2373.37C308.598 2376.09 308.834 2378.72 305.199 2380.29C303.992 2380.81 300.889 2379.77 300.445 2378.7C299.029 2375.28 300.43 2373.02 305.179 2373.37Z" fill="#191919"/>
<path d="M871.874 2373.24C876.842 2374.26 876.676 2377.11 874.53 2379.67C873.774 2380.57 870.174 2380.59 869.397 2379.69C867.261 2377.22 866.885 2374.34 871.874 2373.24Z" fill="#191919"/>
<path d="M409.276 2379.23C406.111 2380.39 403.826 2380.06 403.995 2376.89C404.051 2375.83 405.873 2374.06 406.958 2374.01C410.073 2373.85 410.553 2376.04 409.276 2379.23Z" fill="#111111"/>
<path d="M1504.32 857.549C1509.51 870.253 1514.43 882.237 1519.7 895.077C1517.02 897.368 1514.45 899.45 1512.01 901.677C1489.83 921.884 1467.78 942.223 1445.45 962.247C1441.09 966.158 1439.36 970.202 1439.4 976.016C1439.62 1011.01 1439.63 1046.01 1439.39 1081.01C1439.35 1086.86 1441.17 1090.87 1445.5 1094.76C1467.57 1114.57 1489.39 1134.67 1511.28 1154.68C1513.95 1157.12 1516.53 1159.64 1519.36 1162.32C1499.52 1209.78 1479.9 1256.69 1460.08 1304.1C1453.08 1303.78 1446.47 1303.52 1439.86 1303.16C1412.58 1301.63 1385.3 1300.14 1358.02 1298.46C1354.02 1298.22 1351.11 1299.33 1348.28 1302.17C1322.2 1328.41 1296.07 1354.6 1269.78 1380.63C1266.5 1383.87 1265.99 1387.28 1266.22 1391.41C1267.87 1420.35 1269.45 1449.3 1271.04 1478.25C1271.3 1482.86 1271.5 1487.46 1271.77 1492.95C1224.56 1512.69 1177.66 1532.31 1129.14 1552.6C1127.38 1550.19 1125.82 1547.6 1123.83 1545.41C1103.43 1522.97 1082.86 1500.67 1062.58 1478.12C1058.75 1473.85 1055 1471.65 1049.01 1471.69C1013.68 1471.98 978.342 1471.95 943.012 1471.71C937.472 1471.67 933.79 1473.51 930.172 1477.53C910.102 1499.82 889.8 1521.91 869.565 1544.05C867.33 1546.5 865.015 1548.87 862.314 1551.73C815.33 1532.09 768.413 1512.48 720.818 1492.59C720.818 1489.52 720.667 1486.28 720.842 1483.05C722.465 1453.1 724.007 1423.15 725.921 1393.22C726.316 1387.04 724.68 1382.71 720.194 1378.3C695.227 1353.78 670.467 1329.04 645.961 1304.05C641.476 1299.48 637.096 1298.35 630.96 1298.74C598.384 1300.81 565.779 1302.43 531.801 1304.28C512.164 1257.43 492.52 1210.56 472.547 1162.91C475.264 1160.23 477.723 1157.65 480.344 1155.25C502.466 1134.99 524.519 1114.66 546.848 1094.63C551.238 1090.69 552.869 1086.6 552.832 1080.8C552.61 1045.8 552.596 1010.8 552.842 975.806C552.883 969.905 550.911 965.972 546.593 962.098C524.513 942.29 502.689 922.196 480.79 902.185C478.345 899.951 475.995 897.614 472.537 894.308C492.164 847.369 511.88 800.218 531.636 752.972C545.249 753.599 557.869 754.121 570.482 754.774C591.115 755.842 611.755 756.812 632.365 758.225C638.256 758.628 642.235 756.727 646.312 752.592C670.88 727.669 695.624 702.916 720.553 678.353C724.737 674.23 726.311 670.129 725.945 664.322C724.057 634.391 722.516 604.437 720.861 574.491C720.697 571.512 720.578 568.53 720.374 564.198C767.332 544.529 814.475 524.782 862.039 504.859C865.025 508.058 867.512 510.671 869.943 513.333C889.948 535.238 910.063 557.042 929.84 579.15C933.997 583.797 938.253 585.641 944.494 585.589C978.823 585.301 1013.16 585.25 1047.49 585.624C1054.24 585.697 1058.57 583.328 1062.86 578.541C1082.46 556.718 1102.34 535.148 1122.12 513.493C1124.56 510.82 1127.04 508.183 1130.15 504.842C1177.34 524.583 1224.26 544.21 1271.36 563.91C1271.36 568.126 1271.53 571.729 1271.33 575.312C1269.7 604.925 1268.12 634.542 1266.21 664.138C1265.83 669.925 1267.29 674.061 1271.5 678.204C1296.65 703.008 1321.61 728.018 1346.44 753.159C1350.29 757.064 1354.18 758.57 1359.63 758.254C1390.56 756.455 1421.52 754.941 1452.47 753.359C1454.78 753.241 1457.09 753.344 1460.66 753.344C1475 787.56 1489.53 822.195 1504.32 857.549ZM1176.71 696.189C1093.03 651.759 1004.85 639.466 912.344 659.828C707.059 705.012 577.626 915.259 629.088 1119.61C680.106 1322.2 882.61 1444.66 1085.84 1395.83C1285 1347.97 1411.46 1143.9 1364.67 944.799C1338.87 835.035 1275.77 752.777 1176.71 696.189Z" fill="#B8B8B8"/>
<path d="M1185.97 2175.11C1194.94 2174.89 1203.1 2174.89 1211.23 2174.89C1211.57 2189.62 1192.83 2202.61 1180.48 2196.99C1173.57 2193.84 1171.85 2184.97 1177.45 2179.58C1179.5 2177.62 1182.56 2176.72 1185.97 2175.11Z" fill="#707070"/>
<path d="M511.521 2142.32C529.615 2138.14 539.815 2149.62 537.727 2166.69C536.903 2173.44 534.685 2180.37 531.497 2186.37C527.327 2194.22 519.736 2197.9 510.69 2197.78C502.112 2197.66 495.014 2192.65 492.75 2184.5C489.213 2171.77 492.683 2148.66 511.521 2142.32Z" fill="#727272"/>
<path d="M1504.71 2147.32C1512.38 2160.73 1510.89 2178.17 1501.74 2189.01C1495.42 2196.48 1484.99 2199.73 1476.55 2196.86C1468.05 2193.97 1463.63 2186.64 1463.51 2175.48C1463.43 2167.66 1464.85 2160.25 1469.09 2153.55C1474.32 2145.27 1481.78 2141.16 1491.67 2141.47C1496.57 2141.63 1500.8 2143.08 1504.71 2147.32Z" fill="#727272"/>
<path d="M1186.67 1972.18C1190.52 1970.91 1193.65 1969.57 1196.89 1969.18C1207.27 1967.95 1215.53 1973.57 1217.49 1983.77C1219.63 1994.95 1217.88 2005.7 1211.23 2015.25C1207.66 2020.38 1202.67 2023.51 1196.55 2024.91C1184.67 2027.62 1173.85 2020.94 1172.32 2008.85C1170.51 1994.59 1173.29 1981.57 1186.67 1972.18Z" fill="#727272"/>
<path d="M511.506 2392.5C519.725 2397.28 521.827 2401.97 519.953 2409.72C518.918 2414 516.149 2416.65 511.968 2417.59C507.356 2418.62 503.51 2417.16 500.751 2413.19C494.651 2404.43 499.384 2394.57 511.506 2392.5Z" fill="#707070"/>
<path d="M1388.55 2408.27C1391.89 2408.49 1394.44 2408.74 1396.98 2408.99C1396.08 2417.06 1392.52 2420.78 1385.94 2420.23C1383.67 2420.04 1380.62 2418.57 1379.58 2416.74C1377.84 2413.68 1380 2411.04 1382.99 2409.62C1384.46 2408.92 1386.16 2408.73 1388.55 2408.27Z" fill="#707070"/>
<path d="M1169.8 2406.21C1170.52 2402.86 1170.7 2399.97 1172.1 2397.91C1173.48 2395.88 1175.88 2394.09 1178.21 2393.23C1184.41 2390.96 1190.62 2394.73 1192.82 2401.62C1195.32 2409.43 1191.81 2417.96 1185.29 2419.92C1178.57 2421.94 1172.8 2418.93 1170.4 2411.96C1169.87 2410.43 1169.98 2408.68 1169.8 2406.21Z" fill="#707070"/>
<path d="M934.244 2412.15C931.882 2418.82 927.443 2420.89 921.484 2420.22C916.662 2419.68 913.416 2416.88 912.351 2412.29C910.975 2406.36 910.587 2400.28 915.603 2395.58C921.364 2390.18 930.923 2392.21 933.632 2399.78C934.89 2403.31 934.237 2407.51 934.244 2412.15Z" fill="#707070"/>
<path d="M674.305 2415.85C666.418 2421.43 660.284 2421.47 656.237 2416.65C652.465 2412.15 651.91 2401.23 656.213 2397.19C658.792 2394.77 663.018 2393.09 666.564 2392.97C671.082 2392.83 675.095 2396.05 675.657 2400.68C676.23 2405.4 675.143 2410.33 674.305 2415.85Z" fill="#707070"/>
<path d="M1177.35 696.557C1275.77 752.778 1338.87 835.035 1364.67 944.799C1411.46 1143.9 1285 1347.98 1085.84 1395.83C882.61 1444.66 680.106 1322.2 629.088 1119.61C577.626 915.259 707.059 705.012 912.344 659.828C1004.85 639.466 1093.03 651.759 1177.35 696.557ZM901.783 849.217C876.091 823.529 850.465 797.773 824.676 772.182C812.435 760.036 799.299 760.132 786.98 772.303C771.094 787.998 755.275 803.764 739.607 819.675C727.896 831.568 727.701 844.952 739.342 856.618C809.033 926.453 878.809 996.203 948.631 1065.91C959.468 1076.73 972.771 1076.67 984.092 1066.09C988.959 1061.54 993.559 1056.7 998.271 1051.98C1010.05 1040.2 1022 1028.57 1033.56 1016.57C1044.38 1005.33 1044.2 992.422 1033.57 981.043C1031.75 979.096 1029.82 977.253 1027.93 975.368C986.215 933.65 944.499 891.934 901.783 849.217ZM1083.05 1002.05C1091.07 994.043 1099.44 986.349 1106.97 977.91C1111.86 972.438 1116.3 971.703 1123.42 973.608C1187.44 990.754 1250.07 944.648 1253.1 878.339C1253.57 868.173 1252.8 857.941 1248.29 846.913C1245.04 849.849 1242.59 851.885 1240.35 854.12C1227.82 866.575 1215.43 879.166 1202.83 891.543C1189.28 904.856 1175.25 904.845 1161.7 891.571C1151.7 881.776 1141.81 871.872 1132.01 861.877C1118.34 847.931 1118.51 834.17 1132.48 820.078C1145.15 807.297 1157.94 794.634 1170.61 781.854C1172.51 779.932 1174.06 777.651 1176.88 774.17C1169.64 773.069 1164.46 772.02 1159.22 771.523C1086.93 764.657 1031 830.388 1050.01 900.276C1052 907.597 1050.56 911.872 1045.29 916.673C1036.48 924.711 1028.31 933.451 1018.83 942.939C1027.82 951.561 1036.46 959.332 1044.5 967.677C1060.23 983.986 1061.35 1006.15 1047.8 1024.09C1046.23 1026.17 1044.73 1028.31 1042.84 1030.93C1045.07 1032.8 1046.93 1034.35 1049.2 1036.25C1060.51 1024.83 1071.28 1013.94 1083.05 1002.05ZM818.209 1282.86C823.748 1283.87 829.253 1285.46 834.833 1285.8C908.129 1290.23 960.948 1225.7 941.75 1154.95C940.168 1149.12 941.407 1145.81 945.354 1141.93C963.406 1124.17 981.244 1106.2 999.116 1088.27C1001.13 1086.25 1002.87 1083.97 1004.94 1081.57C1002.37 1079.22 1000.5 1077.51 999.657 1076.74C991.357 1081.05 984.422 1085.87 976.73 1088.38C960.977 1093.51 947.229 1088.42 935.587 1077.24C927.455 1069.44 919.568 1061.38 910.575 1052.44C899.494 1064.07 888.966 1075.11 878.939 1085.63C825.739 1073.67 787.995 1084.52 760.884 1119.51C740.264 1146.12 734.377 1175.8 743.325 1210.6C747.223 1207.11 749.673 1205.12 751.904 1202.9C764.422 1190.44 776.816 1177.87 789.391 1165.47C802.985 1152.07 816.895 1152.08 830.516 1165.45C840.265 1175.01 849.893 1184.7 859.499 1194.41C873.846 1208.92 873.934 1222.6 859.723 1236.97C847.538 1249.28 835.187 1261.43 823.036 1273.78C820.787 1276.07 819.14 1278.94 818.209 1282.86ZM1181.56 1247.43C1197.18 1262.74 1212.81 1278.05 1227.04 1292C1238.32 1280.75 1248.81 1270.28 1259.68 1259.43C1240.93 1240.34 1221.37 1220.42 1201.52 1200.2C1199.05 1201.73 1196.94 1203.03 1194.34 1204.64C1139.14 1149.81 1084.19 1095.24 1029.88 1041.3C1022.55 1048.59 1015.87 1055.24 1008.89 1062.19C1063.26 1116.98 1117.82 1171.97 1172.21 1226.78C1170.46 1229.75 1169.21 1231.87 1167.94 1234.02C1172.49 1238.51 1176.52 1242.48 1181.56 1247.43Z" fill="#121212"/>
<path d="M902.283 849.717C944.499 891.934 986.215 933.65 1027.93 975.368C1029.82 977.253 1031.75 979.096 1033.57 981.043C1044.2 992.422 1044.38 1005.33 1033.56 1016.57C1022 1028.57 1010.05 1040.2 998.271 1051.98C993.559 1056.7 988.959 1061.54 984.092 1066.09C972.771 1076.67 959.468 1076.73 948.631 1065.91C878.809 996.203 809.033 926.453 739.342 856.618C727.701 844.952 727.896 831.568 739.607 819.675C755.275 803.764 771.094 787.998 786.98 772.304C799.299 760.132 812.435 760.036 824.676 772.182C850.465 797.773 876.09 823.529 902.283 849.717ZM805.374 806.25C803.653 808.18 801.932 810.11 801.2 810.931C863.303 873.042 924.911 934.659 986.654 996.411C990.701 992.565 995.465 988.038 999.476 984.227C937.352 922.093 875.692 860.425 813.617 798.34C811.603 800.259 808.983 802.754 805.374 806.25ZM915.273 997.727C926.969 1009.42 938.665 1021.12 949.354 1031.8C955.045 1026.57 959.843 1022.16 963.519 1018.78C901.786 957.086 840.164 895.501 778.854 834.229C774.869 837.883 770.058 842.293 764.726 847.183C814.944 897.401 864.608 947.064 915.273 997.727Z" fill="#B5B5B5"/>
<path d="M1082.55 1002.55C1071.28 1013.94 1060.51 1024.83 1049.2 1036.25C1046.93 1034.35 1045.07 1032.8 1042.84 1030.93C1044.73 1028.31 1046.23 1026.17 1047.8 1024.09C1061.35 1006.15 1060.23 983.986 1044.5 967.677C1036.46 959.332 1027.82 951.561 1018.83 942.939C1028.31 933.451 1036.48 924.711 1045.29 916.673C1050.56 911.872 1052 907.596 1050.01 900.275C1031 830.388 1086.93 764.657 1159.22 771.523C1164.46 772.02 1169.64 773.069 1176.88 774.17C1174.06 777.651 1172.51 779.931 1170.61 781.854C1157.94 794.634 1145.15 807.297 1132.48 820.078C1118.51 834.17 1118.34 847.93 1132.01 861.877C1141.81 871.872 1151.7 881.776 1161.7 891.571C1175.25 904.845 1189.28 904.856 1202.83 891.543C1215.43 879.166 1227.82 866.575 1240.35 854.12C1242.59 851.885 1245.04 849.849 1248.29 846.913C1252.8 857.941 1253.57 868.173 1253.1 878.339C1250.07 944.648 1187.44 990.754 1123.42 973.608C1116.3 971.703 1111.86 972.438 1106.97 977.91C1099.44 986.349 1091.07 994.043 1082.55 1002.55Z" fill="#B7B7B7"/>
<path d="M817.712 1282.2C819.14 1278.94 820.787 1276.07 823.036 1273.78C835.187 1261.43 847.538 1249.28 859.723 1236.97C873.934 1222.6 873.846 1208.92 859.499 1194.41C849.893 1184.7 840.265 1175.01 830.516 1165.44C816.895 1152.08 802.985 1152.07 789.391 1165.47C776.816 1177.87 764.422 1190.44 751.904 1202.9C749.673 1205.12 747.222 1207.11 743.325 1210.6C734.377 1175.8 740.264 1146.12 760.884 1119.51C787.995 1084.52 825.739 1073.67 878.939 1085.63C888.966 1075.11 899.494 1064.07 910.575 1052.44C919.568 1061.38 927.455 1069.44 935.587 1077.24C947.229 1088.42 960.977 1093.51 976.73 1088.38C984.422 1085.87 991.357 1081.05 999.657 1076.74C1000.5 1077.51 1002.37 1079.22 1004.94 1081.57C1002.87 1083.97 1001.13 1086.25 999.116 1088.27C981.244 1106.2 963.406 1124.17 945.353 1141.93C941.407 1145.81 940.168 1149.12 941.75 1154.95C960.948 1225.7 908.129 1290.23 834.833 1285.8C829.253 1285.46 823.748 1283.87 817.712 1282.2Z" fill="#B7B7B7"/>
<path d="M1181.06 1246.94C1176.52 1242.48 1172.49 1238.51 1167.94 1234.02C1169.21 1231.87 1170.46 1229.75 1172.21 1226.78C1117.82 1171.97 1063.26 1116.98 1008.89 1062.19C1015.87 1055.24 1022.55 1048.59 1029.88 1041.3C1084.19 1095.24 1139.14 1149.81 1194.34 1204.64C1196.94 1203.03 1199.05 1201.73 1201.52 1200.2C1221.37 1220.42 1240.93 1240.34 1259.68 1259.43C1248.81 1270.28 1238.32 1280.75 1227.04 1292C1212.81 1278.05 1197.18 1262.74 1181.06 1246.94Z" fill="#B6B6B6"/>
<path d="M805.869 805.75C808.983 802.754 811.603 800.258 813.617 798.34C875.692 860.425 937.352 922.093 999.476 984.227C995.465 988.038 990.701 992.565 986.654 996.411C924.911 934.659 863.303 873.042 801.2 810.931C801.932 810.11 803.653 808.18 805.869 805.75Z" fill="#151515"/>
<path d="M914.773 997.227C864.608 947.064 814.944 897.4 764.726 847.183C770.058 842.293 774.869 837.883 778.854 834.229C840.164 895.501 901.786 957.085 963.519 1018.78C959.843 1022.16 955.045 1026.57 949.354 1031.8C938.665 1021.12 926.969 1009.42 914.773 997.227Z" fill="#161616"/>
</svg>
